<svg id="svg" version="1.1" xmlns="http://www.w3.org/2000/svg" xmlns:xlink="http://www.w3.org/1999/xlink" width="400" height="463.4920634920635" viewBox="0, 0, 400,463.4920634920635"><g id="svgg"><path id="path0" d="M179.505 137.083 C 180.002 137.179,180.722 137.175,181.105 137.075 C 181.487 136.975,181.080 136.896,180.200 136.901 C 179.320 136.905,179.007 136.987,179.505 137.083 M182.586 137.519 C 182.686 137.620,187.566 137.820,193.430 137.964 C 203.961 138.224,204.102 138.238,204.846 139.158 C 205.592 140.079,205.600 140.080,205.600 139.234 C 205.600 138.715,205.247 138.247,204.700 138.042 C 203.782 137.697,182.255 137.188,182.586 137.519 M245.100 181.482 C 245.595 181.578,246.405 181.578,246.900 181.482 C 247.395 181.387,246.990 181.309,246.000 181.309 C 245.010 181.309,244.605 181.387,245.100 181.482 M239.652 222.356 C 237.416 222.643,237.349 222.693,234.661 226.179 C 234.034 226.991,232.681 228.173,231.654 228.805 C 230.627 229.437,229.227 230.748,228.542 231.719 C 227.858 232.690,226.601 233.991,225.749 234.611 C 222.715 236.816,222.404 237.423,222.402 241.153 L 222.400 244.505 220.500 246.252 C 215.593 250.763,216.000 250.069,216.000 253.930 L 216.000 257.385 213.018 260.193 L 210.036 263.000 209.547 266.572 L 209.059 270.144 206.382 272.772 C 203.118 275.977,203.177 275.616,203.341 291.183 L 203.452 301.765 205.026 302.472 C 206.311 303.049,207.751 303.181,212.864 303.190 L 219.129 303.200 220.164 301.969 C 220.734 301.292,221.200 300.518,221.200 300.248 C 221.200 299.978,221.840 299.137,222.622 298.378 L 224.043 297.000 231.070 296.784 L 238.096 296.569 239.048 295.462 C 239.572 294.853,240.000 294.129,240.000 293.853 C 240.000 291.978,243.452 290.400,247.550 290.400 C 251.109 290.400,251.628 290.129,252.897 287.603 C 254.323 284.767,255.833 284.000,259.997 284.000 C 263.804 284.000,264.133 283.832,265.574 281.145 C 266.933 278.610,269.230 277.628,273.838 277.610 C 277.023 277.597,277.425 277.126,277.769 273.000 C 278.081 269.263,277.831 268.727,275.171 267.448 C 272.511 266.169,271.600 264.515,271.600 260.967 C 271.600 257.067,271.217 256.225,268.913 255.057 C 266.087 253.625,265.200 251.822,265.200 247.508 C 265.200 243.716,265.051 243.456,261.972 241.882 C 260.703 241.234,259.967 240.470,259.193 239.000 C 258.375 237.446,257.701 236.777,256.170 236.000 C 253.428 234.608,252.400 232.529,252.400 228.377 C 252.400 224.632,251.980 224.140,247.867 223.071 C 244.371 222.163,242.459 221.996,239.652 222.356 M135.446 224.586 C 134.983 225.292,134.800 226.511,134.799 228.886 C 134.797 232.667,134.065 234.366,131.941 235.523 C 130.087 236.534,128.400 238.001,128.400 238.605 C 128.400 239.488,126.326 241.672,124.936 242.253 C 122.438 243.296,122.000 244.157,122.000 248.016 C 122.000 251.984,121.271 253.549,118.817 254.854 C 116.356 256.161,116.054 256.711,115.765 260.400 C 115.444 264.497,114.508 266.475,112.434 267.435 C 109.516 268.786,109.255 269.273,109.487 272.932 C 109.718 276.559,109.861 276.812,112.413 278.099 C 113.695 278.745,114.483 279.522,115.200 280.844 C 117.006 284.175,116.516 284.000,124.027 284.000 C 132.344 284.000,132.533 283.902,133.238 279.200 C 133.785 275.557,134.387 274.310,136.189 273.085 C 136.948 272.569,137.981 271.624,138.485 270.984 L 139.400 269.820 139.482 247.311 L 139.564 224.802 138.402 224.201 C 136.790 223.367,136.194 223.445,135.446 224.586 M165.200 318.486 C 163.550 318.670,157.852 318.771,152.538 318.711 C 147.223 318.650,142.967 318.748,143.079 318.928 C 143.190 319.108,148.933 319.216,155.841 319.166 C 169.733 319.066,170.000 319.113,170.000 321.636 C 170.000 325.378,169.720 325.319,187.800 325.407 C 196.160 325.448,204.440 325.589,206.200 325.720 C 209.256 325.949,209.221 325.935,205.400 325.418 C 202.722 325.055,196.702 324.863,187.189 324.838 C 171.162 324.795,171.529 324.863,170.762 321.816 C 170.009 318.823,168.778 318.087,165.200 318.486 M210.100 326.276 C 210.485 326.376,211.115 326.376,211.500 326.276 C 211.885 326.175,211.570 326.093,210.800 326.093 C 210.030 326.093,209.715 326.175,210.100 326.276 " stroke="none" fill="#f8c423" fill-rule="evenodd"></path><path id="path1" d="M184.200 167.000 C 182.880 167.302,181.592 167.560,181.337 167.574 C 180.811 167.603,176.157 171.140,174.065 173.100 C 173.302 173.815,172.516 174.400,172.319 174.400 C 171.927 174.400,168.429 181.677,167.601 184.215 C 167.317 185.087,166.660 186.309,166.142 186.931 C 165.624 187.553,165.200 188.194,165.200 188.355 C 165.200 188.798,163.945 190.004,161.453 191.955 C 160.220 192.921,158.770 194.451,158.232 195.355 C 157.693 196.260,156.712 197.499,156.052 198.110 C 155.315 198.791,154.611 200.047,154.229 201.360 C 153.615 203.470,151.601 206.826,149.748 208.822 C 149.227 209.384,148.800 210.019,148.800 210.233 C 148.800 210.447,148.305 211.194,147.700 211.894 C 144.535 215.556,142.866 218.250,142.583 220.153 C 142.255 222.365,141.324 223.515,139.581 223.864 C 138.594 224.061,138.490 224.180,138.982 224.551 C 139.497 224.940,139.564 227.981,139.488 247.410 L 139.400 269.820 138.485 270.984 C 137.981 271.624,136.948 272.569,136.189 273.085 C 134.392 274.306,133.789 275.549,133.227 279.188 C 132.973 280.831,132.474 282.497,132.118 282.890 C 131.505 283.567,131.544 283.592,132.835 283.347 C 135.633 282.815,135.739 282.651,135.454 279.289 C 135.147 275.657,135.730 274.512,137.477 275.308 C 138.351 275.706,138.448 275.944,138.239 277.182 C 138.108 277.962,137.896 279.500,137.768 280.600 L 137.536 282.600 139.476 283.900 C 140.543 284.615,141.562 285.200,141.740 285.200 C 142.364 285.200,147.410 287.321,148.400 288.000 C 148.979 288.396,150.580 288.789,152.200 288.932 C 155.618 289.233,159.111 290.494,161.200 292.181 C 161.530 292.447,163.330 292.982,165.200 293.369 C 167.070 293.756,168.870 294.304,169.200 294.586 C 169.530 294.868,170.458 295.310,171.261 295.568 C 172.065 295.826,173.152 296.435,173.677 296.921 C 174.618 297.793,182.764 300.604,185.690 301.066 C 187.983 301.428,194.714 300.444,197.496 299.339 C 200.298 298.227,200.513 298.275,201.435 300.217 C 203.105 303.737,203.913 298.505,203.386 287.579 C 203.229 284.323,203.232 280.251,203.394 278.530 L 203.687 275.400 206.373 272.772 L 209.059 270.144 209.547 266.572 L 210.036 263.000 213.018 260.193 L 216.000 257.385 216.000 253.930 C 216.000 250.069,215.593 250.763,220.500 246.252 L 222.400 244.505 222.402 241.153 C 222.404 237.423,222.715 236.816,225.749 234.611 C 226.601 233.991,227.858 232.690,228.542 231.719 C 229.227 230.748,230.627 229.437,231.654 228.805 C 232.681 228.173,234.034 226.980,234.661 226.154 C 237.081 222.964,237.826 222.402,239.669 222.372 C 241.523 222.342,243.778 221.684,242.219 221.628 C 240.295 221.559,237.168 219.092,237.380 217.810 C 238.220 212.733,238.239 212.874,236.508 211.212 C 235.627 210.365,234.502 208.837,234.007 207.815 C 233.415 206.591,232.373 205.414,230.952 204.365 C 228.618 202.640,226.781 200.432,224.057 196.076 C 223.098 194.543,221.913 193.075,221.424 192.813 C 220.935 192.551,220.209 191.766,219.811 191.069 C 219.413 190.371,218.676 189.350,218.173 188.800 C 217.670 188.250,216.155 185.730,214.806 183.200 C 211.334 176.690,208.027 172.850,204.162 170.837 C 203.262 170.368,202.105 169.538,201.593 168.992 C 200.864 168.216,200.261 168.000,198.830 168.000 C 197.824 168.000,195.650 167.749,194.000 167.442 C 189.042 166.521,186.748 166.417,184.200 167.000 M219.986 244.113 C 220.005 245.068,218.879 245.450,218.161 244.732 C 217.658 244.230,217.669 243.984,218.249 242.823 L 218.913 241.490 219.442 242.445 C 219.734 242.970,219.978 243.721,219.986 244.113 M206.903 268.608 C 207.005 270.251,206.386 270.776,205.226 270.030 C 204.734 269.714,204.758 269.424,205.392 268.017 C 206.238 266.141,206.763 266.345,206.903 268.608 " stroke="none" fill="#e42221" fill-rule="evenodd"></path><path id="path2" d="M168.612 137.513 C 168.495 137.817,168.400 139.123,168.400 140.416 L 168.400 142.766 165.300 142.883 L 162.200 143.000 162.083 146.083 L 161.967 149.167 158.883 149.283 L 155.800 149.400 155.683 152.483 L 155.567 155.567 152.483 155.683 L 149.400 155.800 149.283 158.883 L 149.167 161.967 146.083 162.083 L 143.000 162.200 142.890 168.300 L 142.779 174.400 140.070 174.400 C 136.672 174.400,136.400 174.673,136.400 178.080 L 136.400 180.800 133.590 180.800 C 130.051 180.800,130.000 180.905,130.000 188.226 L 130.000 193.600 127.000 193.600 L 124.000 193.600 124.000 196.800 L 124.000 200.000 120.800 200.000 L 117.600 200.000 117.600 206.456 L 117.600 212.912 115.490 212.694 C 114.330 212.574,112.890 212.570,112.290 212.685 L 111.200 212.893 111.200 219.047 L 111.200 225.200 109.500 225.234 C 108.565 225.253,107.170 225.298,106.400 225.334 L 105.000 225.400 104.890 231.683 L 104.780 237.967 101.690 238.083 L 98.600 238.200 98.483 241.283 L 98.367 244.367 95.283 244.483 L 92.200 244.600 92.090 250.649 L 91.980 256.699 89.093 256.983 C 85.485 257.339,85.613 257.084,85.606 263.882 L 85.600 269.565 82.704 269.682 L 79.809 269.800 79.479 272.000 C 79.066 274.762,79.283 294.216,79.732 294.667 C 79.915 294.850,82.742 295.058,86.015 295.129 L 91.966 295.257 92.083 298.129 L 92.200 301.000 101.700 301.107 L 111.200 301.214 111.200 304.407 L 111.200 307.600 117.600 307.600 L 124.000 307.600 124.000 310.770 L 124.000 313.941 133.409 313.737 L 142.818 313.534 143.251 314.775 C 143.489 315.458,144.013 316.193,144.416 316.408 C 145.243 316.851,162.554 316.879,166.000 316.442 C 169.128 316.046,170.950 316.981,172.166 319.607 C 173.769 323.064,172.527 322.800,187.149 322.801 C 201.206 322.802,205.824 323.157,210.200 324.573 C 215.615 326.325,219.382 326.850,225.600 326.721 L 231.400 326.600 231.517 323.510 L 231.633 320.420 237.917 320.310 L 244.200 320.200 244.317 317.100 L 244.434 314.000 253.774 314.000 C 264.422 314.000,263.600 314.321,263.600 310.167 L 263.600 307.600 269.800 307.600 L 276.000 307.600 276.000 304.400 L 276.000 301.200 282.400 301.200 L 288.800 301.200 288.800 298.200 L 288.800 295.200 293.950 295.200 C 296.783 295.200,299.663 295.088,300.350 294.950 L 301.600 294.700 301.600 291.750 L 301.600 288.800 304.320 288.800 C 308.224 288.800,308.000 289.583,308.000 275.934 C 308.000 262.256,308.294 263.200,304.026 263.200 L 301.600 263.200 301.600 260.242 L 301.600 257.283 298.410 257.001 L 295.220 256.719 295.110 250.659 L 295.000 244.600 291.917 244.483 L 288.833 244.367 288.717 241.283 L 288.600 238.200 285.510 238.083 L 282.420 237.967 282.310 231.683 L 282.200 225.400 279.100 225.283 L 276.000 225.166 276.000 219.017 L 276.000 212.868 273.000 212.587 L 270.000 212.306 270.000 210.603 C 270.000 209.666,269.887 208.337,269.750 207.650 L 269.500 206.400 266.550 206.400 L 263.600 206.400 263.600 200.633 C 263.600 193.226,263.783 193.600,260.157 193.600 L 257.200 193.600 257.120 191.900 C 257.076 190.965,257.078 189.480,257.124 188.600 C 257.171 187.720,257.072 187.198,256.905 187.440 C 256.517 187.999,251.169 188.058,250.500 187.511 C 250.225 187.286,250.000 186.584,250.000 185.951 C 250.000 184.171,248.749 183.200,246.458 183.200 C 242.622 183.200,241.841 181.607,243.400 176.962 C 244.080 174.937,244.400 173.105,244.400 171.242 L 244.400 168.500 243.150 168.250 C 242.463 168.113,241.023 168.000,239.950 168.000 L 238.000 168.000 238.000 165.000 L 238.000 162.000 234.800 162.000 L 231.600 162.000 231.600 158.800 L 231.600 155.600 228.400 155.600 L 225.200 155.600 225.200 152.400 L 225.200 149.200 222.200 149.200 L 219.200 149.200 219.200 146.649 C 219.200 145.084,219.005 143.936,218.695 143.679 C 217.957 143.066,212.240 143.367,209.093 144.184 C 206.019 144.982,205.771 144.889,204.151 142.323 C 202.964 140.443,200.910 139.807,197.138 140.154 C 193.109 140.524,185.608 139.748,179.800 138.360 C 174.035 136.983,168.963 136.599,168.612 137.513 M195.380 158.967 C 196.287 159.499,197.278 160.397,197.581 160.964 C 198.452 162.592,199.643 163.121,203.358 163.529 C 207.200 163.951,209.445 165.069,210.745 167.206 C 211.138 167.852,212.291 169.015,213.307 169.791 C 214.477 170.685,215.628 172.091,216.449 173.631 C 217.305 175.238,218.320 176.457,219.445 177.231 C 221.850 178.886,222.614 180.157,223.350 183.731 C 224.133 187.530,224.155 187.570,226.395 189.270 C 227.394 190.029,228.728 191.596,229.404 192.807 C 230.143 194.130,231.275 195.423,232.293 196.107 C 233.214 196.725,234.356 197.809,234.832 198.516 C 235.307 199.222,237.047 201.065,238.699 202.611 L 241.703 205.422 242.247 209.211 L 242.790 213.000 245.156 215.200 C 246.456 216.410,247.720 217.795,247.962 218.278 C 248.205 218.760,249.485 219.731,250.805 220.435 C 254.101 222.192,254.879 223.552,255.210 228.132 C 255.492 232.042,255.931 232.752,259.130 234.477 C 259.917 234.902,260.727 235.873,261.297 237.077 C 262.027 238.617,262.634 239.229,264.345 240.147 C 267.182 241.670,267.979 243.361,267.991 247.881 C 268.001 251.465,267.809 251.136,271.163 253.315 C 273.540 254.858,274.018 255.870,274.280 259.915 C 274.536 263.873,274.719 264.220,277.268 265.574 C 279.666 266.847,280.400 268.438,280.399 272.359 C 280.398 278.437,278.587 280.400,272.982 280.400 C 269.488 280.400,267.829 281.388,267.015 283.954 C 266.547 285.427,264.457 286.283,260.600 286.580 C 256.615 286.887,256.193 287.117,254.588 289.857 C 253.242 292.154,252.032 292.708,247.646 293.040 C 243.693 293.338,243.544 293.427,241.082 296.966 C 239.799 298.810,238.576 299.130,231.654 299.434 L 225.171 299.719 224.285 300.853 C 223.798 301.477,222.978 302.534,222.462 303.203 C 220.359 305.929,220.873 305.894,188.000 305.540 L 175.000 305.400 172.740 304.290 C 171.497 303.680,170.023 302.581,169.464 301.849 C 168.501 300.586,168.288 300.507,165.325 300.301 C 157.884 299.786,155.271 298.940,152.600 296.178 C 149.370 292.839,149.267 292.802,142.296 292.529 C 135.483 292.261,134.838 292.063,132.147 289.410 L 130.417 287.705 124.508 287.228 C 116.890 286.613,115.530 286.131,113.806 283.436 C 112.336 281.139,111.778 280.594,109.924 279.647 C 105.190 277.229,105.362 268.169,110.190 265.636 C 112.660 264.340,113.187 263.331,113.194 259.884 C 113.202 256.369,114.162 254.408,116.565 252.999 C 119.057 251.539,119.127 251.398,119.440 247.184 C 119.749 243.042,120.599 241.661,123.918 239.912 C 124.636 239.533,125.533 238.638,125.912 237.922 C 126.627 236.570,128.122 235.010,130.569 233.061 L 132.000 231.921 132.000 228.487 C 132.000 223.803,132.779 222.212,135.945 220.431 L 138.292 219.111 138.562 215.883 C 138.898 211.845,139.563 210.435,142.188 208.192 C 144.223 206.454,144.289 206.328,144.986 202.906 C 145.691 199.442,145.729 199.371,148.195 197.000 C 149.568 195.680,151.263 193.668,151.962 192.528 C 152.754 191.238,153.881 190.077,154.948 189.451 C 155.891 188.899,157.152 187.708,157.749 186.805 C 158.346 185.903,159.311 184.767,159.892 184.282 C 163.644 181.152,163.592 181.236,163.861 177.800 C 164.198 173.492,165.440 171.136,168.102 169.751 C 168.708 169.435,169.664 168.449,170.226 167.558 C 170.790 166.665,172.076 165.459,173.094 164.869 C 174.110 164.281,176.222 162.495,177.789 160.900 L 180.638 158.000 187.184 158.000 C 193.385 158.000,193.817 158.051,195.380 158.967 " stroke="none" fill="#040c04" fill-rule="evenodd"></path><path id="path3" d="M168.542 136.893 C 168.420 137.091,168.428 137.361,168.560 137.493 C 168.692 137.625,168.800 137.529,168.800 137.279 C 168.800 137.029,169.070 136.929,169.400 137.055 C 169.730 137.182,170.000 137.116,170.000 136.909 C 170.000 136.430,168.837 136.417,168.542 136.893 M173.200 136.761 C 173.200 136.975,173.515 137.142,173.900 137.133 C 174.285 137.123,176.940 137.675,179.800 138.359 C 185.606 139.748,193.107 140.524,197.138 140.154 C 200.910 139.807,202.964 140.443,204.151 142.323 C 205.772 144.891,206.020 144.983,209.093 144.176 C 210.603 143.779,213.331 143.450,215.262 143.432 C 217.166 143.414,218.641 143.265,218.539 143.100 C 218.307 142.726,214.029 142.758,209.800 143.165 C 206.151 143.516,205.600 143.284,205.600 141.395 C 205.600 138.337,205.311 138.252,193.943 137.946 C 188.364 137.796,182.270 137.480,180.400 137.243 C 173.821 136.411,173.200 136.370,173.200 136.761 M177.789 160.900 C 176.222 162.495,174.110 164.281,173.094 164.869 C 172.076 165.459,170.790 166.665,170.226 167.558 C 169.664 168.449,168.708 169.435,168.102 169.751 C 165.440 171.136,164.198 173.492,163.861 177.800 C 163.592 181.236,163.644 181.152,159.892 184.282 C 159.311 184.767,158.346 185.903,157.749 186.805 C 157.152 187.708,155.891 188.899,154.948 189.451 C 153.881 190.077,152.754 191.238,151.962 192.528 C 151.263 193.668,149.568 195.680,148.195 197.000 C 145.729 199.371,145.691 199.442,144.986 202.906 C 144.289 206.328,144.223 206.454,142.188 208.192 C 139.563 210.435,138.898 211.845,138.562 215.883 L 138.292 219.111 135.945 220.431 C 132.779 222.212,132.000 223.803,132.000 228.487 L 132.000 231.921 130.569 233.061 C 128.122 235.010,126.627 236.570,125.912 237.922 C 125.533 238.638,124.636 239.533,123.918 239.912 C 120.599 241.661,119.749 243.042,119.440 247.184 C 119.127 251.398,119.057 251.539,116.565 252.999 C 114.162 254.408,113.202 256.369,113.194 259.884 C 113.187 263.331,112.660 264.340,110.190 265.636 C 105.362 268.169,105.190 277.229,109.924 279.647 C 111.778 280.594,112.336 281.139,113.806 283.436 C 115.530 286.131,116.890 286.613,124.508 287.228 L 130.417 287.705 132.147 289.410 C 134.838 292.063,135.483 292.261,142.296 292.529 C 149.267 292.802,149.370 292.839,152.600 296.178 C 155.271 298.940,157.884 299.786,165.325 300.301 C 168.288 300.507,168.501 300.586,169.464 301.849 C 170.023 302.581,171.497 303.680,172.740 304.290 L 175.000 305.400 188.000 305.540 C 220.873 305.894,220.359 305.929,222.462 303.203 C 222.978 302.534,223.798 301.477,224.285 300.853 L 225.171 299.719 231.654 299.434 C 238.576 299.130,239.799 298.810,241.082 296.966 C 243.544 293.427,243.693 293.338,247.646 293.040 C 252.032 292.708,253.242 292.154,254.588 289.857 C 256.193 287.117,256.615 286.887,260.600 286.580 C 264.457 286.283,266.547 285.427,267.015 283.954 C 267.829 281.388,269.488 280.400,272.982 280.400 C 278.587 280.400,280.398 278.437,280.399 272.359 C 280.400 268.438,279.666 266.847,277.268 265.574 C 274.719 264.220,274.536 263.873,274.280 259.915 C 274.018 255.870,273.540 254.858,271.163 253.315 C 267.809 251.136,268.001 251.465,267.991 247.881 C 267.979 243.361,267.182 241.670,264.345 240.147 C 262.634 239.229,262.027 238.617,261.297 237.077 C 260.727 235.873,259.917 234.902,259.130 234.477 C 255.931 232.752,255.492 232.042,255.210 228.132 C 254.879 223.552,254.101 222.192,250.805 220.435 C 249.485 219.731,248.205 218.760,247.962 218.278 C 247.720 217.795,246.456 216.410,245.156 215.200 L 242.790 213.000 242.247 209.211 L 241.703 205.422 238.699 202.611 C 237.047 201.065,235.307 199.222,234.832 198.516 C 234.356 197.809,233.214 196.725,232.293 196.107 C 231.275 195.423,230.143 194.130,229.404 192.807 C 228.728 191.596,227.394 190.029,226.395 189.270 C 224.155 187.570,224.133 187.530,223.350 183.731 C 222.614 180.157,221.850 178.886,219.445 177.231 C 218.320 176.457,217.305 175.238,216.449 173.631 C 215.628 172.091,214.477 170.685,213.307 169.791 C 212.291 169.015,211.138 167.852,210.745 167.206 C 209.445 165.069,207.200 163.951,203.358 163.529 C 199.643 163.121,198.452 162.592,197.581 160.964 C 196.283 158.539,194.392 158.000,187.184 158.000 L 180.638 158.000 177.789 160.900 M194.000 167.442 C 195.650 167.749,197.824 168.000,198.830 168.000 C 200.261 168.000,200.864 168.216,201.593 168.992 C 202.105 169.538,203.262 170.368,204.162 170.837 C 208.027 172.850,211.334 176.690,214.806 183.200 C 216.155 185.730,217.670 188.250,218.173 188.800 C 218.676 189.350,219.413 190.371,219.811 191.069 C 220.209 191.766,220.935 192.551,221.424 192.813 C 221.913 193.075,223.098 194.543,224.057 196.076 C 226.781 200.432,228.618 202.640,230.952 204.365 C 232.373 205.414,233.415 206.591,234.007 207.815 C 234.502 208.837,235.627 210.365,236.508 211.212 C 238.239 212.875,238.217 212.703,237.385 217.800 C 237.147 219.254,239.504 220.972,242.939 221.849 C 244.073 222.138,246.290 222.699,247.867 223.096 C 251.972 224.128,252.400 224.626,252.400 228.377 C 252.400 232.529,253.428 234.608,256.170 236.000 C 257.701 236.777,258.375 237.446,259.193 239.000 C 259.967 240.470,260.703 241.234,261.972 241.882 C 265.051 243.456,265.200 243.716,265.200 247.508 C 265.200 251.822,266.087 253.625,268.913 255.057 C 271.217 256.225,271.600 257.067,271.600 260.967 C 271.600 264.515,272.511 266.169,275.171 267.448 C 277.831 268.727,278.081 269.263,277.769 273.000 C 277.425 277.126,277.023 277.597,273.838 277.610 C 269.230 277.628,266.933 278.610,265.574 281.145 C 264.133 283.832,263.804 284.000,259.997 284.000 C 255.833 284.000,254.323 284.767,252.897 287.603 C 251.628 290.129,251.109 290.400,247.550 290.400 C 243.452 290.400,240.000 291.978,240.000 293.853 C 240.000 294.129,239.572 294.853,239.048 295.462 L 238.096 296.569 231.070 296.784 L 224.043 297.000 222.622 298.378 C 221.840 299.137,221.200 299.978,221.200 300.248 C 221.200 300.518,220.734 301.292,220.164 301.969 L 219.129 303.200 212.864 303.191 C 207.490 303.184,206.352 303.070,204.856 302.391 C 203.897 301.956,202.883 301.600,202.602 301.600 C 202.321 301.600,201.796 300.978,201.435 300.217 C 200.513 298.275,200.298 298.227,197.496 299.339 C 194.714 300.444,187.983 301.428,185.690 301.066 C 182.764 300.604,174.618 297.793,173.677 296.921 C 173.152 296.435,172.065 295.826,171.261 295.568 C 170.458 295.310,169.530 294.868,169.200 294.586 C 168.870 294.304,167.070 293.756,165.200 293.369 C 163.330 292.982,161.530 292.447,161.200 292.181 C 159.111 290.494,155.618 289.233,152.200 288.932 C 150.580 288.789,148.979 288.396,148.400 288.000 C 147.410 287.321,142.364 285.200,141.740 285.200 C 141.562 285.200,140.543 284.615,139.476 283.900 L 137.536 282.600 137.768 280.600 C 137.896 279.500,138.108 277.962,138.239 277.182 C 138.448 275.944,138.351 275.706,137.477 275.308 C 135.732 274.513,135.147 275.658,135.453 279.275 C 135.637 281.443,135.572 282.370,135.222 282.587 C 133.785 283.474,129.699 283.973,123.749 283.986 C 116.547 284.002,117.003 284.169,115.200 280.844 C 114.483 279.522,113.695 278.745,112.413 278.099 C 109.861 276.812,109.718 276.559,109.487 272.932 C 109.255 269.273,109.516 268.786,112.434 267.435 C 114.508 266.475,115.444 264.497,115.765 260.400 C 116.054 256.711,116.356 256.161,118.817 254.854 C 121.271 253.549,122.000 251.984,122.000 248.016 C 122.000 244.157,122.438 243.296,124.936 242.253 C 126.326 241.672,128.400 239.488,128.400 238.605 C 128.400 238.001,130.087 236.534,131.941 235.523 C 134.065 234.366,134.797 232.667,134.799 228.886 C 134.800 224.469,135.399 223.461,137.804 223.821 C 138.982 223.998,139.865 223.883,140.719 223.442 C 141.998 222.781,142.182 222.430,142.630 219.800 C 142.886 218.295,144.951 215.075,147.700 211.894 C 148.305 211.194,148.800 210.447,148.800 210.233 C 148.800 210.019,149.227 209.384,149.748 208.822 C 151.601 206.826,153.615 203.470,154.229 201.360 C 154.611 200.047,155.315 198.791,156.052 198.110 C 156.712 197.499,157.693 196.260,158.232 195.355 C 158.770 194.451,160.220 192.921,161.453 191.955 C 163.945 190.004,165.200 188.798,165.200 188.355 C 165.200 188.194,165.624 187.553,166.142 186.931 C 166.660 186.309,167.317 185.087,167.601 184.215 C 168.429 181.677,171.927 174.400,172.319 174.400 C 172.516 174.400,173.302 173.815,174.065 173.100 C 176.157 171.140,180.811 167.603,181.337 167.574 C 181.592 167.560,182.880 167.302,184.200 167.000 C 186.748 166.417,189.042 166.521,194.000 167.442 M243.228 177.403 C 241.908 181.679,242.756 183.200,246.458 183.200 C 248.749 183.200,250.000 184.171,250.000 185.951 C 250.000 187.596,250.629 187.911,253.900 187.901 C 257.666 187.890,257.674 187.347,253.910 187.237 C 250.399 187.134,250.623 187.437,250.433 182.556 C 250.403 181.785,250.149 181.706,247.500 181.640 C 243.752 181.547,243.553 181.329,243.995 177.806 C 244.448 174.194,244.251 174.091,243.228 177.403 M218.249 242.823 C 217.669 243.984,217.658 244.230,218.161 244.732 C 219.524 246.096,220.500 244.354,219.442 242.445 L 218.913 241.490 218.249 242.823 M205.392 268.017 C 204.758 269.424,204.734 269.714,205.226 270.030 C 206.386 270.776,207.005 270.251,206.903 268.608 C 206.763 266.345,206.238 266.141,205.392 268.017 M137.300 313.899 C 141.268 313.988,142.812 314.159,142.843 314.511 C 143.055 316.932,143.103 317.486,143.148 318.074 C 143.206 318.823,159.975 319.113,165.701 318.464 C 168.877 318.104,169.972 318.845,170.781 321.901 C 171.548 324.798,171.113 324.725,188.800 324.915 C 200.128 325.037,205.845 325.261,209.000 325.707 C 211.420 326.049,214.570 326.421,216.000 326.533 L 218.600 326.738 216.000 326.147 C 214.570 325.822,211.960 325.117,210.200 324.579 C 205.370 323.103,201.446 322.800,187.159 322.800 C 172.526 322.800,173.769 323.065,172.166 319.607 C 170.950 316.981,169.128 316.046,166.000 316.442 C 162.554 316.879,145.243 316.851,144.416 316.408 C 144.013 316.193,143.495 315.473,143.263 314.808 L 142.842 313.600 137.321 313.688 L 131.800 313.775 137.300 313.899 " stroke="none" fill="#b42c3c" fill-rule="evenodd"></path><path id="path4" d="M175.000 130.267 C 169.533 130.721,169.079 131.030,168.618 134.600 L 168.360 136.600 173.706 136.670 C 176.646 136.709,181.110 136.933,183.626 137.169 C 186.142 137.404,191.653 137.598,195.874 137.599 C 204.902 137.600,205.598 137.764,205.605 139.890 C 205.618 143.347,205.280 143.190,212.483 143.089 L 218.879 143.000 218.626 140.800 C 218.231 137.375,217.764 137.098,211.602 136.637 L 206.400 136.248 206.400 133.538 C 206.400 131.268,206.274 130.761,205.626 130.414 C 204.917 130.034,179.286 129.911,175.000 130.267 M244.240 176.248 C 243.912 181.730,243.607 181.202,247.142 181.268 C 249.822 181.317,250.931 181.743,250.767 182.658 C 250.733 182.846,250.727 183.945,250.753 185.100 L 250.800 187.200 253.850 187.200 L 256.899 187.200 256.715 184.980 C 256.478 182.118,255.838 181.497,252.912 181.286 L 250.600 181.118 250.742 179.343 C 250.994 176.171,250.552 174.896,249.087 174.579 C 248.379 174.426,247.206 173.693,246.481 172.950 C 244.600 171.026,244.547 171.104,244.240 176.248 M257.200 191.991 L 257.200 193.600 258.809 193.600 L 260.418 193.600 259.781 192.628 C 259.431 192.093,258.707 191.369,258.172 191.019 L 257.200 190.382 257.200 191.991 M122.031 198.031 C 120.412 199.650,120.477 200.000,122.400 200.000 L 124.000 200.000 124.000 198.400 C 124.000 196.477,123.650 196.412,122.031 198.031 M115.631 204.431 C 114.438 205.624,114.400 205.773,114.400 209.281 L 114.400 212.900 115.650 212.650 C 116.338 212.513,117.058 212.400,117.250 212.400 C 117.442 212.400,117.600 210.330,117.600 207.800 C 117.600 202.803,117.474 202.588,115.631 204.431 M109.400 223.428 L 107.800 225.000 109.340 225.127 C 111.236 225.282,111.283 225.237,111.127 223.369 L 111.000 221.857 109.400 223.428 M124.801 315.100 C 124.806 318.715,126.934 319.618,136.100 319.892 L 142.800 320.092 142.839 321.346 C 142.860 322.036,142.846 323.284,142.807 324.120 C 142.678 326.874,142.315 326.800,156.049 326.800 L 168.400 326.800 168.400 329.792 C 168.400 333.621,165.819 333.284,193.979 333.130 C 221.096 332.981,218.800 333.348,218.800 329.166 L 218.800 326.885 215.100 326.623 C 213.065 326.478,209.690 326.167,207.600 325.931 C 205.510 325.695,196.780 325.463,188.200 325.416 C 169.664 325.313,170.000 325.382,170.000 321.636 C 170.000 319.140,169.734 319.092,155.707 319.044 C 144.719 319.006,142.997 318.919,142.962 318.400 C 142.940 318.070,142.894 316.945,142.861 315.900 L 142.800 314.000 133.800 314.000 L 124.800 314.000 124.801 315.100 " stroke="none" fill="#fcfcfc" fill-rule="evenodd"></path></g></svg>