<svg id="svg" version="1.1" xmlns="http://www.w3.org/2000/svg" xmlns:xlink="http://www.w3.org/1999/xlink" width="400" height="698.1818181818182" viewBox="0, 0, 400,698.1818181818182"><g id="svgg"><path id="path0" d="M164.800 178.357 C 163.843 178.622,163.795 178.785,163.684 182.117 L 163.569 185.600 156.384 185.600 L 149.200 185.600 149.200 189.200 L 149.200 192.800 145.600 192.800 L 142.000 192.800 142.000 196.400 L 142.000 200.000 138.452 200.000 L 134.905 200.000 134.657 201.500 C 134.520 202.325,134.407 203.945,134.404 205.100 L 134.400 207.200 131.280 207.200 C 127.361 207.200,127.200 207.361,127.200 211.280 L 127.200 214.400 124.080 214.400 C 120.168 214.400,120.000 214.566,120.000 218.438 L 120.000 221.515 116.400 221.800 L 112.800 222.085 112.800 229.227 L 112.800 236.369 109.300 236.484 L 105.800 236.600 105.685 240.085 L 105.569 243.569 102.085 243.685 L 98.600 243.800 98.335 245.800 C 98.189 246.900,98.054 251.699,98.035 256.464 L 98.000 265.128 94.635 265.408 C 90.559 265.748,90.813 265.199,90.805 273.684 L 90.800 279.969 87.300 280.084 L 83.800 280.200 83.695 294.684 L 83.590 309.169 80.095 309.284 L 76.600 309.400 76.497 331.100 L 76.393 352.800 72.795 352.800 L 69.197 352.800 69.298 403.500 L 69.400 454.200 72.897 454.316 L 76.393 454.431 76.497 476.116 L 76.600 497.800 78.300 497.923 L 80.000 498.046 80.000 501.876 L 80.000 505.705 81.800 507.505 L 83.600 509.305 83.600 517.773 C 83.600 527.683,83.391 527.200,87.680 527.200 L 90.800 527.200 90.805 537.100 C 90.812 549.772,90.498 548.800,94.592 548.800 L 97.891 548.800 98.084 555.839 C 98.309 564.001,98.073 563.585,102.484 563.594 L 105.569 563.600 105.684 567.100 L 105.800 570.600 109.291 570.715 L 112.782 570.831 112.891 577.915 L 113.000 585.000 116.485 585.115 L 119.969 585.231 120.085 588.715 L 120.200 592.200 123.700 592.316 L 127.200 592.431 127.206 595.516 C 127.214 599.607,127.289 599.691,131.115 599.913 L 134.303 600.097 134.487 603.285 C 134.709 607.111,134.793 607.186,138.884 607.194 L 141.969 607.200 142.084 610.700 L 142.200 614.200 145.685 614.315 L 149.169 614.431 149.285 617.915 L 149.400 621.400 156.485 621.509 L 163.569 621.618 163.685 625.109 L 163.800 628.600 189.100 628.703 L 214.400 628.806 214.400 625.203 L 214.400 621.600 221.553 621.600 C 229.806 621.600,229.185 621.965,229.195 617.109 L 229.200 614.418 236.300 614.309 L 243.400 614.200 243.516 610.700 L 243.631 607.200 246.583 607.200 C 251.127 607.200,250.800 607.792,250.800 599.557 L 250.800 592.400 254.400 592.400 L 258.000 592.400 258.000 588.800 L 258.000 585.200 261.550 585.200 L 265.100 585.200 265.350 583.950 C 265.488 583.263,265.600 581.643,265.600 580.350 L 265.600 578.000 268.957 578.000 C 273.069 578.000,272.800 578.548,272.800 570.167 L 272.800 563.600 275.626 563.600 C 280.186 563.600,280.000 563.931,280.000 555.801 L 280.000 548.831 283.500 548.716 L 287.000 548.600 287.108 540.961 L 287.217 533.322 288.754 532.861 C 291.000 532.188,292.316 530.979,292.870 529.079 C 293.140 528.155,293.594 527.256,293.880 527.080 C 294.264 526.844,294.401 525.380,294.403 521.480 L 294.405 516.200 295.548 515.550 C 297.775 514.283,300.392 509.293,300.398 506.300 C 300.399 505.642,300.618 505.200,300.942 505.200 C 301.663 505.200,301.994 501.555,301.997 493.553 L 302.000 487.305 303.756 485.550 C 306.265 483.040,306.659 481.513,307.985 469.123 C 308.213 466.991,308.400 464.531,308.400 463.656 C 308.400 461.307,308.650 460.927,310.115 461.054 L 311.400 461.165 310.200 460.879 L 309.000 460.594 308.774 452.397 C 308.649 447.889,308.624 437.090,308.717 428.400 C 308.942 407.375,308.248 397.760,306.302 394.942 C 304.059 391.695,303.903 390.250,303.641 370.271 C 303.407 352.490,303.376 351.929,302.600 351.491 C 302.160 351.242,300.912 350.580,299.827 350.020 C 296.281 348.187,296.400 348.964,296.400 327.576 L 296.400 308.939 295.500 308.116 C 295.005 307.663,294.150 307.158,293.600 306.993 C 289.712 305.833,289.200 304.449,289.200 295.109 C 289.200 286.353,289.087 285.958,286.339 285.134 C 280.781 283.469,280.580 275.445,286.040 273.184 C 287.070 272.757,287.200 272.507,287.200 270.951 C 287.200 269.988,287.374 269.200,287.587 269.200 C 288.090 269.200,290.800 271.910,290.800 272.413 C 290.800 272.626,291.450 272.800,292.245 272.800 L 293.689 272.800 293.410 271.314 C 292.840 268.272,290.775 266.400,287.992 266.400 C 287.256 266.400,287.200 266.120,287.200 262.447 C 287.200 257.868,287.349 258.015,282.709 258.005 L 280.018 258.000 279.909 250.900 L 279.800 243.800 276.300 243.684 L 272.800 243.569 272.800 237.017 C 272.800 228.654,273.068 229.200,268.957 229.200 L 265.600 229.200 265.600 226.850 C 265.600 225.557,265.490 223.949,265.355 223.277 L 265.111 222.053 261.555 221.775 L 258.000 221.497 258.000 218.191 C 258.000 214.324,258.085 214.400,253.783 214.400 L 250.831 214.400 250.716 210.900 L 250.600 207.400 247.115 207.285 L 243.631 207.169 243.515 203.685 L 243.400 200.200 239.915 200.085 L 236.431 199.969 236.315 196.485 L 236.200 193.000 232.700 192.884 L 229.200 192.769 229.195 190.084 C 229.185 185.236,229.805 185.600,221.553 185.600 L 214.400 185.600 214.400 182.050 L 214.400 178.500 213.150 178.250 C 211.447 177.909,166.053 178.010,164.800 178.357 M197.236 202.826 C 200.522 203.356,202.057 204.273,203.707 206.693 C 206.352 210.571,206.769 210.800,211.205 210.800 C 215.603 210.800,215.979 211.013,218.940 215.169 C 219.633 216.142,221.010 217.506,222.000 218.201 C 222.990 218.896,224.540 220.432,225.445 221.615 C 226.349 222.797,228.053 224.404,229.231 225.185 C 230.408 225.967,231.777 227.235,232.271 228.003 C 234.068 230.794,234.473 231.222,236.605 232.586 C 237.969 233.459,239.311 234.782,240.221 236.153 C 241.097 237.471,242.529 238.903,243.848 239.779 C 247.023 241.887,247.597 243.043,247.599 247.338 C 247.600 251.412,248.203 252.675,250.772 253.985 C 253.982 255.623,254.800 257.134,254.800 261.428 C 254.800 265.883,255.092 266.504,258.298 268.872 C 261.268 271.067,261.997 272.391,261.999 275.603 C 262.001 280.059,262.862 281.787,266.114 283.862 C 269.144 285.795,269.197 286.042,269.199 298.162 C 269.200 310.406,269.144 310.184,272.860 312.533 C 273.824 313.143,275.044 314.270,275.570 315.039 L 276.528 316.436 276.506 330.897 C 276.482 347.374,276.261 346.261,280.066 348.845 C 284.133 351.606,283.796 348.963,283.828 378.385 C 283.853 400.978,283.940 404.591,284.528 407.335 C 285.112 410.058,285.200 413.394,285.200 432.700 L 285.200 454.930 284.212 456.615 C 283.555 457.737,282.653 458.573,281.512 459.117 C 277.890 460.846,278.225 459.186,278.000 476.499 L 277.800 491.864 276.721 493.278 C 276.127 494.056,274.867 495.057,273.921 495.502 C 270.289 497.212,269.499 500.062,269.299 512.184 C 269.152 521.090,268.898 521.925,265.879 523.445 C 262.556 525.119,262.000 526.140,261.997 530.578 C 261.994 535.293,261.622 536.105,258.498 538.208 C 255.138 540.471,254.800 541.130,254.800 545.423 C 254.800 549.742,254.319 550.604,250.567 553.004 C 247.369 555.050,247.042 555.748,247.330 559.933 C 247.624 564.216,247.148 565.216,243.745 567.475 C 242.387 568.376,240.835 569.885,239.951 571.164 C 239.127 572.354,237.659 573.822,236.688 574.426 C 235.717 575.030,234.490 576.104,233.962 576.812 C 232.623 578.604,230.050 581.191,228.289 582.515 C 227.473 583.128,226.194 584.585,225.447 585.753 C 224.586 587.099,223.365 588.322,222.113 589.093 C 221.026 589.761,219.701 590.892,219.168 591.604 C 218.636 592.317,217.459 593.687,216.553 594.650 L 214.905 596.400 211.953 596.430 C 206.801 596.482,206.081 596.808,203.742 600.155 C 201.338 603.596,201.741 603.500,189.000 603.660 C 176.106 603.821,176.682 603.966,174.193 599.945 C 172.274 596.846,171.470 596.400,167.801 596.400 C 164.115 596.400,162.462 595.763,160.950 593.759 C 159.230 591.479,157.147 589.514,155.324 588.450 C 154.429 587.928,153.193 586.703,152.577 585.729 C 151.509 584.039,150.098 582.657,147.834 581.082 C 147.266 580.687,146.172 579.380,145.404 578.179 C 144.486 576.744,143.254 575.513,141.815 574.592 C 140.396 573.684,139.053 572.351,138.006 570.809 C 137.000 569.327,135.713 568.031,134.601 567.380 C 131.271 565.428,130.800 564.514,130.800 560.000 C 130.800 555.484,130.403 554.716,126.899 552.459 C 124.153 550.690,123.830 549.998,123.600 545.400 L 123.400 541.400 120.805 540.083 C 114.910 537.094,114.800 536.855,114.800 527.078 C 114.800 518.772,114.957 519.214,111.296 517.205 C 107.910 515.346,107.817 515.059,107.677 505.991 L 107.554 498.038 106.277 496.991 C 105.575 496.415,104.374 495.547,103.610 495.062 C 100.611 493.162,100.399 492.416,100.412 483.841 C 100.418 479.638,100.363 471.296,100.289 465.302 L 100.154 454.405 99.002 453.202 C 98.369 452.541,97.628 452.000,97.356 452.000 C 96.579 452.000,94.438 450.032,93.714 448.652 C 92.736 446.789,92.749 418.066,93.730 413.630 C 94.662 409.414,94.725 369.335,93.807 364.999 C 92.619 359.393,93.337 357.044,96.766 355.311 C 97.733 354.822,98.947 354.026,99.463 353.541 L 100.400 352.661 100.400 334.210 L 100.400 315.760 101.471 314.109 C 102.100 313.138,103.159 312.179,104.041 311.781 C 107.446 310.246,107.538 309.980,107.677 301.200 C 107.817 292.315,108.052 291.592,111.334 289.946 C 114.882 288.166,114.800 288.397,114.800 280.156 C 114.800 271.178,115.435 269.329,119.043 267.811 C 121.481 266.786,122.000 265.804,122.000 262.222 C 122.000 256.887,122.847 255.213,126.486 253.361 C 128.934 252.115,129.112 251.712,129.401 246.777 C 129.692 241.825,130.359 240.442,133.141 239.025 C 135.262 237.946,136.300 236.901,137.588 234.549 C 138.230 233.376,139.161 232.522,140.803 231.598 C 142.702 230.530,143.352 229.868,144.457 227.878 C 145.485 226.024,146.216 225.238,147.576 224.522 C 149.980 223.255,150.721 222.526,151.836 220.327 C 152.594 218.833,153.257 218.203,155.116 217.212 C 157.077 216.167,157.678 215.567,158.909 213.428 C 160.880 210.000,162.478 209.205,167.426 209.187 C 171.562 209.173,171.863 209.015,173.490 206.001 C 175.493 202.294,176.294 202.059,186.278 202.245 C 190.855 202.331,195.786 202.592,197.236 202.826 M315.774 420.200 C 315.775 425.920,315.831 428.204,315.899 425.276 C 315.968 422.348,315.967 417.668,315.899 414.876 C 315.830 412.084,315.774 414.480,315.774 420.200 M315.720 453.200 C 315.720 454.410,315.795 454.905,315.887 454.300 C 315.978 453.695,315.978 452.705,315.887 452.100 C 315.795 451.495,315.720 451.990,315.720 453.200 M314.464 458.846 C 314.186 459.292,313.383 459.907,312.679 460.212 C 311.241 460.838,311.798 461.009,313.350 460.419 C 313.901 460.210,314.557 459.654,314.808 459.185 C 315.403 458.073,315.121 457.795,314.464 458.846 M308.480 460.880 C 308.216 461.144,308.000 462.193,308.000 463.210 C 308.000 468.392,305.960 476.156,304.079 478.134 C 301.530 480.814,301.600 481.020,301.600 470.814 L 301.600 461.600 304.324 461.600 C 306.099 461.600,307.317 461.396,307.824 461.013 C 308.769 460.298,309.136 460.224,308.480 460.880 M298.000 505.640 C 298.000 506.212,295.412 508.800,294.840 508.800 C 294.585 508.800,294.400 508.042,294.400 507.000 L 294.400 505.200 296.200 505.200 C 297.242 505.200,298.000 505.385,298.000 505.640 " stroke="none" fill="#070704" fill-rule="evenodd"></path><path id="path1" d="M177.237 206.161 C 176.765 206.663,175.978 207.857,175.489 208.814 C 174.012 211.703,173.008 212.179,168.072 212.334 C 163.298 212.484,162.482 212.880,161.345 215.600 C 160.689 217.168,158.505 219.600,157.752 219.600 C 156.845 219.600,154.858 221.614,154.402 222.993 C 153.860 224.637,151.705 226.625,150.080 226.982 C 148.725 227.280,147.426 228.550,146.993 230.000 C 146.455 231.804,145.253 233.078,143.296 233.920 C 141.154 234.842,140.369 235.600,139.637 237.453 C 138.983 239.107,137.362 240.579,135.452 241.251 C 132.782 242.190,132.354 243.130,132.478 247.776 C 132.612 252.823,131.869 254.371,128.620 255.808 C 125.804 257.053,125.632 257.362,125.364 261.641 C 125.015 267.204,123.372 270.400,120.861 270.400 C 120.470 270.400,119.666 270.905,119.075 271.522 L 118.000 272.644 118.000 280.342 C 118.000 289.411,117.392 291.212,114.000 292.199 C 113.450 292.359,112.505 292.953,111.900 293.520 L 110.800 294.550 110.800 302.095 C 110.800 311.207,110.326 312.502,106.386 314.148 C 103.449 315.375,103.615 314.150,103.583 334.818 C 103.549 357.598,103.875 356.149,98.289 358.354 C 96.774 358.952,96.567 359.752,97.429 361.665 L 98.161 363.287 99.980 363.029 C 102.065 362.733,107.050 362.503,118.985 362.152 L 127.371 361.906 130.635 358.553 C 132.429 356.709,134.056 355.195,134.249 355.189 C 134.442 355.183,136.310 355.013,138.400 354.812 C 142.532 354.413,142.251 354.581,145.172 350.768 C 146.409 349.153,147.711 348.622,152.546 347.758 C 156.731 347.011,156.766 346.989,159.889 343.274 C 160.687 342.325,161.893 341.269,162.570 340.927 C 164.485 339.960,165.530 338.825,166.546 336.605 C 167.062 335.478,168.076 334.117,168.800 333.579 C 169.524 333.040,171.305 331.398,172.758 329.929 C 174.211 328.460,176.120 326.902,177.000 326.466 C 178.768 325.590,180.234 324.136,181.517 321.985 C 181.981 321.206,183.125 320.140,184.060 319.614 C 186.984 317.971,187.572 317.005,187.597 313.800 C 187.636 308.824,188.969 305.750,191.861 303.963 C 193.770 302.782,194.077 301.976,194.427 297.217 C 195.157 287.286,195.874 284.808,198.727 282.343 C 201.481 279.963,202.582 275.565,201.966 269.400 C 201.743 267.167,201.762 262.839,202.017 258.000 C 202.433 250.102,202.011 230.161,201.397 228.680 C 201.233 228.284,200.139 227.346,198.965 226.595 C 195.100 224.122,194.517 220.882,195.835 209.194 L 196.083 206.988 194.142 206.327 C 190.599 205.121,178.327 205.000,177.237 206.161 M286.567 273.795 C 285.833 274.914,284.024 279.176,284.009 279.819 C 283.992 280.584,286.978 283.099,288.467 283.573 C 291.049 284.395,291.200 284.969,291.200 293.986 L 291.200 302.000 292.800 303.600 C 293.680 304.480,294.750 305.200,295.178 305.200 C 298.432 305.200,298.795 307.567,298.798 328.825 L 298.800 345.850 300.018 347.017 C 300.687 347.658,301.992 348.547,302.918 348.992 C 305.987 350.466,306.101 351.014,305.832 363.000 C 305.512 377.287,306.046 387.038,307.421 392.000 C 308.927 397.437,309.131 401.958,309.024 427.600 C 308.900 457.268,308.924 457.551,311.209 453.229 C 311.625 452.443,311.973 452.037,311.982 452.326 C 312.007 453.068,311.261 454.427,310.185 455.600 C 308.115 457.855,308.912 459.629,311.247 457.966 C 314.300 455.792,315.084 450.543,314.557 435.800 C 314.069 422.138,314.184 414.114,314.973 406.894 C 315.340 403.536,315.530 400.611,315.396 400.394 C 315.262 400.177,315.299 400.000,315.478 400.000 C 315.658 400.000,315.835 398.740,315.874 397.200 C 315.941 394.493,315.912 394.400,314.984 394.400 C 314.298 394.400,314.090 394.230,314.254 393.803 C 314.387 393.458,314.203 393.099,313.819 392.952 C 313.453 392.812,313.245 392.459,313.357 392.169 C 313.485 391.835,313.348 391.722,312.987 391.860 C 312.560 392.024,312.517 392.271,312.817 392.831 C 313.132 393.420,313.096 393.535,312.648 393.363 C 312.322 393.238,312.122 392.726,312.183 392.172 C 312.321 390.920,312.163 390.947,311.429 392.300 C 310.873 393.324,310.831 393.339,310.816 392.513 C 310.805 391.885,310.622 391.694,310.190 391.859 C 309.707 392.044,309.679 392.214,310.057 392.669 C 310.437 393.126,310.418 393.220,309.968 393.123 C 308.970 392.907,308.777 389.524,308.545 368.200 C 308.420 356.760,308.155 347.093,307.954 346.717 C 307.668 346.180,306.925 346.008,304.496 345.917 L 301.403 345.800 301.353 325.588 C 301.290 300.368,301.779 302.581,296.200 302.301 L 294.200 302.200 294.200 291.381 L 294.200 280.561 293.000 280.523 C 292.340 280.503,290.652 280.466,289.248 280.443 L 286.697 280.400 286.984 277.100 C 287.306 273.387,287.247 273.551,288.255 273.573 C 288.665 273.582,289.360 273.590,289.800 273.590 C 290.240 273.590,291.095 273.595,291.700 273.601 C 292.305 273.608,292.800 273.430,292.800 273.206 C 292.800 272.218,287.257 272.741,286.567 273.795 M297.149 280.500 C 297.719 281.227,299.395 281.456,299.765 280.856 C 299.882 280.667,299.492 280.566,298.899 280.631 C 298.306 280.696,297.546 280.536,297.210 280.275 C 296.677 279.860,296.669 279.888,297.149 280.500 M300.267 281.467 C 299.746 281.988,300.011 282.800,300.700 282.794 C 301.254 282.789,301.285 282.715,300.849 282.439 C 300.546 282.247,300.421 281.889,300.572 281.645 C 300.875 281.155,300.687 281.046,300.267 281.467 M314.514 390.136 C 314.025 390.919,314.136 392.877,314.681 393.086 C 314.964 393.195,315.096 393.445,314.974 393.642 C 314.852 393.839,315.053 394.000,315.419 394.000 C 315.857 394.000,316.004 393.787,315.847 393.379 C 315.716 393.038,315.752 392.846,315.926 392.954 C 316.100 393.062,316.224 392.412,316.201 391.510 C 316.159 389.850,315.186 389.057,314.514 390.136 M315.594 390.433 C 315.597 390.122,315.716 389.982,315.857 390.124 C 315.998 390.265,315.893 390.647,315.623 390.973 C 315.352 391.298,315.240 391.740,315.372 391.955 C 315.505 392.169,315.385 392.476,315.107 392.636 C 314.828 392.797,314.724 392.791,314.874 392.623 C 315.025 392.455,314.992 391.905,314.800 391.400 C 314.412 390.381,314.763 389.700,315.267 390.494 C 315.515 390.886,315.589 390.872,315.594 390.433 M278.305 407.702 C 277.703 408.196,276.601 409.467,275.857 410.526 C 273.986 413.188,273.520 413.433,269.200 414.019 C 265.042 414.583,263.727 415.253,262.321 417.527 C 261.168 419.393,259.716 420.693,257.520 421.825 C 256.485 422.358,255.135 423.470,254.520 424.297 C 253.904 425.124,252.202 426.970,250.738 428.400 C 247.494 431.570,247.410 431.731,246.600 436.400 C 245.826 440.859,245.791 440.932,242.835 444.193 L 240.519 446.750 240.075 450.675 C 238.885 461.210,240.302 470.607,243.385 472.627 C 245.219 473.828,246.321 476.018,246.593 479.000 C 247.042 483.913,247.076 483.987,250.547 487.400 C 252.336 489.160,254.284 491.252,254.876 492.048 C 255.467 492.844,256.944 494.057,258.158 494.742 C 259.545 495.524,260.948 496.770,261.934 498.094 C 262.796 499.252,263.962 500.625,264.524 501.144 L 265.546 502.088 266.932 499.344 C 268.505 496.232,269.331 495.378,272.293 493.797 C 275.934 491.854,275.780 492.627,275.796 476.200 C 275.812 459.588,275.674 460.266,279.594 457.604 C 283.139 455.196,282.916 456.961,282.730 432.837 L 282.565 411.400 281.504 409.100 C 280.334 406.562,279.918 406.379,278.305 407.702 M313.784 410.965 C 313.639 411.936,313.372 415.941,313.191 419.865 L 312.862 427.000 313.016 419.000 C 313.155 411.721,313.375 409.200,313.871 409.200 C 313.969 409.200,313.930 409.994,313.784 410.965 M97.540 414.056 C 95.517 417.185,95.407 418.150,95.404 432.871 C 95.400 448.590,95.220 447.682,98.838 450.224 C 102.394 452.722,102.279 452.013,102.467 472.582 C 102.655 493.035,102.440 491.715,105.957 493.973 C 109.286 496.109,109.463 496.641,109.734 505.352 C 109.999 513.840,109.823 513.335,113.488 516.057 C 116.449 518.256,116.520 518.472,117.043 526.947 C 117.597 535.922,117.852 536.431,122.203 537.233 C 123.522 537.476,125.216 537.932,125.968 538.246 C 127.680 538.960,129.643 537.844,131.549 535.074 C 133.215 532.653,134.030 532.225,138.501 531.424 C 143.832 530.470,144.818 529.403,145.722 523.609 C 146.401 519.253,146.920 518.272,149.833 515.837 C 152.023 514.007,152.491 513.081,153.389 508.800 C 154.085 505.485,154.171 505.328,156.841 502.509 C 158.348 500.919,159.665 499.209,159.769 498.709 C 160.270 496.293,160.697 476.006,160.373 470.000 C 159.877 460.816,159.996 461.215,156.763 457.881 C 153.718 454.742,153.752 454.819,153.428 450.265 C 153.168 446.621,152.528 445.472,149.673 443.522 C 147.556 442.076,147.226 441.725,145.594 439.177 C 144.952 438.175,143.566 436.758,142.513 436.030 C 141.461 435.301,139.430 433.501,138.000 432.029 C 136.570 430.557,134.942 429.004,134.383 428.577 C 133.823 428.149,132.588 426.767,131.639 425.505 C 129.438 422.581,128.112 421.796,124.400 421.221 C 122.750 420.965,120.895 420.660,120.278 420.541 C 119.630 420.417,117.848 419.104,116.064 417.435 L 112.972 414.544 108.386 414.080 C 97.759 413.005,98.218 413.006,97.540 414.056 M280.182 421.700 C 280.332 422.415,280.551 430.153,280.668 438.897 L 280.882 454.793 278.941 455.623 C 274.114 457.689,273.928 458.469,274.081 476.085 C 274.227 492.904,274.572 491.787,269.128 492.100 C 265.218 492.324,262.938 491.594,261.493 489.654 C 261.222 489.290,260.392 488.491,259.648 487.878 C 258.035 486.549,256.638 484.715,255.778 482.800 C 255.433 482.030,254.908 480.860,254.613 480.200 C 251.854 474.032,250.696 470.313,249.819 464.797 C 248.991 459.589,248.835 447.796,249.560 445.248 C 249.834 444.284,250.215 442.539,250.405 441.370 C 250.773 439.111,253.463 434.651,256.476 431.309 C 257.314 430.379,258.000 429.470,258.000 429.289 C 258.000 429.109,258.608 428.741,259.350 428.472 C 260.093 428.204,261.809 427.268,263.164 426.392 C 264.518 425.516,265.897 424.800,266.226 424.800 C 266.556 424.800,268.215 424.266,269.913 423.613 C 271.611 422.960,273.990 422.207,275.200 421.940 C 276.410 421.672,277.755 421.216,278.189 420.927 C 279.415 420.108,279.886 420.291,280.182 421.700 M114.200 423.045 C 115.079 423.390,117.386 424.012,119.325 424.427 C 122.314 425.066,123.100 425.410,124.495 426.690 C 127.231 429.202,127.715 429.758,129.986 433.005 C 131.763 435.545,132.773 436.523,135.386 438.233 C 138.402 440.206,140.863 442.651,142.513 445.311 C 142.904 445.944,143.404 446.672,143.623 446.930 C 143.841 447.189,144.912 449.200,146.002 451.400 C 147.092 453.600,148.675 456.570,149.521 458.000 C 150.366 459.430,151.263 460.960,151.515 461.400 C 152.657 463.396,154.552 468.937,155.278 472.400 C 156.786 479.589,154.606 495.371,151.578 499.184 C 150.960 499.963,150.145 501.410,149.768 502.400 C 149.391 503.390,148.601 504.740,148.013 505.400 C 146.526 507.069,145.858 508.238,144.863 510.913 C 144.389 512.185,143.714 513.665,143.362 514.202 C 143.010 514.739,142.514 515.878,142.261 516.732 C 141.306 519.948,133.940 526.972,130.707 527.749 C 130.106 527.893,129.026 528.515,128.307 529.130 C 127.588 529.745,125.830 530.581,124.400 530.986 C 122.970 531.391,121.408 531.961,120.930 532.251 C 120.129 532.737,120.042 532.692,119.843 531.690 C 119.322 529.068,118.838 525.567,118.585 522.600 C 118.161 517.605,116.336 514.501,113.389 513.762 C 112.097 513.437,112.039 513.130,111.658 504.600 C 111.255 495.571,110.557 493.828,106.700 492.216 C 104.274 491.202,104.313 491.518,104.131 471.831 C 103.928 449.836,103.834 449.319,99.751 447.760 C 98.788 447.392,97.995 446.891,97.988 446.646 C 97.981 446.401,97.743 443.140,97.458 439.400 C 96.919 432.319,96.940 430.763,97.648 425.328 L 98.075 422.056 100.537 421.828 C 101.892 421.703,103.540 421.555,104.200 421.500 C 106.014 421.349,112.388 422.333,114.200 423.045 M302.682 463.100 C 301.846 465.061,301.367 467.544,301.929 467.000 C 302.474 466.473,304.400 462.608,304.400 462.042 C 304.400 461.020,303.273 461.714,302.682 463.100 M304.577 463.979 C 303.990 465.287,303.170 466.665,302.755 467.041 C 302.193 467.549,302.008 468.245,302.032 469.762 C 302.062 471.710,302.082 471.747,302.496 470.600 C 302.735 469.940,303.516 468.546,304.233 467.502 C 304.949 466.458,305.654 465.018,305.798 464.302 C 305.942 463.586,306.148 462.685,306.257 462.300 C 306.726 460.633,305.552 461.806,304.577 463.979 " stroke="none" fill="#cbd46e" fill-rule="evenodd"></path><path id="path2" d="M176.309 202.961 C 175.122 203.589,174.336 204.437,173.490 206.001 C 171.863 209.015,171.562 209.173,167.426 209.187 C 162.478 209.205,160.880 210.000,158.909 213.428 C 157.678 215.567,157.077 216.167,155.116 217.212 C 153.257 218.203,152.594 218.833,151.836 220.327 C 150.721 222.526,149.980 223.255,147.576 224.522 C 146.216 225.238,145.485 226.024,144.457 227.878 C 143.352 229.868,142.702 230.530,140.803 231.598 C 139.161 232.522,138.230 233.376,137.588 234.549 C 136.300 236.901,135.262 237.946,133.141 239.025 C 130.359 240.442,129.692 241.825,129.401 246.777 C 129.112 251.712,128.934 252.115,126.486 253.361 C 122.847 255.213,122.000 256.887,122.000 262.222 C 122.000 265.804,121.481 266.786,119.043 267.811 C 115.435 269.329,114.800 271.178,114.800 280.156 C 114.800 288.397,114.882 288.166,111.334 289.946 C 108.052 291.592,107.817 292.315,107.677 301.200 C 107.538 309.980,107.446 310.246,104.041 311.781 C 103.159 312.179,102.100 313.138,101.471 314.109 L 100.400 315.760 100.400 334.210 L 100.400 352.661 99.463 353.541 C 98.947 354.026,97.733 354.822,96.766 355.311 C 93.337 357.044,92.619 359.393,93.807 364.999 C 94.725 369.335,94.662 409.414,93.730 413.630 C 92.749 418.066,92.736 446.789,93.714 448.652 C 94.438 450.032,96.579 452.000,97.356 452.000 C 97.628 452.000,98.369 452.541,99.002 453.202 L 100.154 454.405 100.289 465.302 C 100.363 471.296,100.418 479.638,100.412 483.841 C 100.399 492.416,100.611 493.162,103.610 495.062 C 104.374 495.547,105.575 496.415,106.277 496.991 L 107.554 498.038 107.677 505.991 C 107.817 515.059,107.910 515.346,111.296 517.205 C 114.957 519.214,114.800 518.772,114.800 527.078 C 114.800 536.855,114.910 537.094,120.805 540.083 L 123.400 541.400 123.600 545.400 C 123.830 549.998,124.153 550.690,126.899 552.459 C 130.403 554.716,130.800 555.484,130.800 560.000 C 130.800 564.514,131.271 565.428,134.601 567.380 C 135.713 568.031,137.000 569.327,138.006 570.809 C 139.053 572.351,140.396 573.684,141.815 574.592 C 143.254 575.513,144.486 576.744,145.404 578.179 C 146.172 579.380,147.266 580.687,147.834 581.082 C 150.098 582.657,151.509 584.039,152.577 585.729 C 153.193 586.703,154.429 587.928,155.324 588.450 C 157.147 589.514,159.230 591.479,160.950 593.759 C 162.462 595.763,164.115 596.400,167.801 596.400 C 171.470 596.400,172.274 596.846,174.193 599.945 C 176.682 603.966,176.106 603.821,189.000 603.660 C 201.741 603.500,201.338 603.596,203.742 600.155 C 206.081 596.808,206.801 596.482,211.953 596.430 L 214.905 596.400 216.553 594.650 C 217.459 593.687,218.636 592.317,219.168 591.604 C 219.701 590.892,221.026 589.761,222.113 589.093 C 223.365 588.322,224.586 587.099,225.447 585.753 C 226.194 584.585,227.473 583.128,228.289 582.515 C 230.050 581.191,232.623 578.604,233.962 576.812 C 234.490 576.104,235.717 575.030,236.688 574.426 C 237.659 573.822,239.127 572.354,239.951 571.164 C 240.835 569.885,242.387 568.376,243.745 567.475 C 247.148 565.216,247.624 564.216,247.330 559.933 C 247.042 555.748,247.369 555.050,250.567 553.004 C 254.319 550.604,254.800 549.742,254.800 545.423 C 254.800 541.130,255.138 540.471,258.498 538.208 C 261.622 536.105,261.994 535.293,261.997 530.578 C 262.000 526.140,262.556 525.119,265.879 523.445 C 268.898 521.925,269.152 521.090,269.299 512.184 C 269.499 500.062,270.289 497.212,273.921 495.502 C 274.867 495.057,276.127 494.056,276.721 493.278 L 277.800 491.864 278.000 476.499 C 278.225 459.186,277.890 460.846,281.512 459.117 C 282.653 458.573,283.555 457.737,284.212 456.615 L 285.200 454.930 285.200 432.700 C 285.200 413.394,285.112 410.058,284.528 407.335 C 283.940 404.591,283.853 400.978,283.828 378.385 C 283.796 348.963,284.133 351.606,280.066 348.845 C 276.261 346.261,276.482 347.374,276.506 330.897 L 276.528 316.436 275.570 315.039 C 275.044 314.270,273.824 313.143,272.860 312.533 C 269.144 310.184,269.200 310.406,269.199 298.162 C 269.197 286.042,269.144 285.795,266.114 283.862 C 262.862 281.787,262.001 280.059,261.999 275.603 C 261.997 272.391,261.268 271.067,258.298 268.872 C 255.092 266.504,254.800 265.883,254.800 261.428 C 254.800 257.134,253.982 255.623,250.772 253.985 C 248.203 252.675,247.600 251.412,247.599 247.338 C 247.597 243.043,247.023 241.887,243.848 239.779 C 242.529 238.903,241.097 237.471,240.221 236.153 C 239.311 234.782,237.969 233.459,236.605 232.586 C 234.473 231.222,234.068 230.794,232.271 228.003 C 231.777 227.235,230.408 225.967,229.231 225.185 C 228.053 224.404,226.349 222.797,225.445 221.615 C 224.540 220.432,222.990 218.896,222.000 218.201 C 221.010 217.506,219.633 216.142,218.940 215.169 C 215.979 211.013,215.603 210.800,211.205 210.800 C 206.769 210.800,206.352 210.571,203.707 206.693 C 201.209 203.029,199.074 202.484,186.278 202.245 C 178.342 202.097,177.879 202.131,176.309 202.961 M194.142 206.327 L 196.083 206.988 195.835 209.194 C 194.517 220.882,195.100 224.122,198.965 226.595 C 200.139 227.346,201.233 228.284,201.397 228.680 C 202.011 230.161,202.433 250.102,202.017 258.000 C 201.762 262.839,201.743 267.167,201.966 269.400 C 202.582 275.565,201.481 279.963,198.727 282.343 C 195.874 284.808,195.157 287.286,194.427 297.217 C 194.077 301.976,193.770 302.782,191.861 303.963 C 188.969 305.750,187.636 308.824,187.597 313.800 C 187.572 317.005,186.984 317.971,184.060 319.614 C 183.125 320.140,181.981 321.206,181.517 321.985 C 180.234 324.136,178.768 325.590,177.000 326.466 C 176.120 326.902,174.211 328.460,172.758 329.929 C 171.305 331.398,169.524 333.040,168.800 333.579 C 168.076 334.117,167.062 335.478,166.546 336.605 C 165.530 338.825,164.485 339.960,162.570 340.927 C 161.893 341.269,160.687 342.325,159.889 343.274 C 156.766 346.989,156.731 347.011,152.546 347.758 C 147.711 348.622,146.409 349.153,145.172 350.768 C 142.251 354.581,142.532 354.413,138.400 354.812 C 136.310 355.013,134.442 355.183,134.249 355.189 C 134.056 355.195,132.429 356.709,130.635 358.553 L 127.371 361.906 118.985 362.152 C 107.050 362.503,102.065 362.733,99.980 363.029 L 98.161 363.287 97.429 361.665 C 96.567 359.752,96.774 358.952,98.289 358.354 C 103.875 356.149,103.549 357.598,103.583 334.818 C 103.615 314.150,103.449 315.375,106.386 314.148 C 110.326 312.502,110.800 311.207,110.800 302.095 L 110.800 294.550 111.900 293.520 C 112.505 292.953,113.450 292.359,114.000 292.199 C 117.392 291.212,118.000 289.411,118.000 280.342 L 118.000 272.644 119.075 271.522 C 119.666 270.905,120.470 270.400,120.861 270.400 C 123.372 270.400,125.015 267.204,125.364 261.641 C 125.632 257.362,125.804 257.053,128.620 255.808 C 131.869 254.371,132.612 252.823,132.478 247.776 C 132.354 243.130,132.782 242.190,135.452 241.251 C 137.362 240.579,138.983 239.107,139.637 237.453 C 140.369 235.600,141.154 234.842,143.296 233.920 C 145.253 233.078,146.455 231.804,146.993 230.000 C 147.426 228.550,148.725 227.280,150.080 226.982 C 151.705 226.625,153.860 224.637,154.402 222.993 C 154.858 221.614,156.845 219.600,157.752 219.600 C 158.505 219.600,160.689 217.168,161.345 215.600 C 162.482 212.880,163.298 212.484,168.072 212.334 C 173.008 212.179,174.012 211.703,175.489 208.814 C 177.367 205.140,177.143 205.218,185.148 205.456 C 190.192 205.606,192.753 205.854,194.142 206.327 M217.372 227.240 C 218.456 227.649,219.527 228.167,219.752 228.392 C 219.976 228.616,220.439 228.805,220.780 228.810 C 221.121 228.816,222.007 229.716,222.750 230.810 C 223.492 231.905,224.244 232.800,224.421 232.800 C 224.598 232.800,224.986 233.025,225.283 233.300 C 225.580 233.575,226.847 234.314,228.098 234.942 C 229.408 235.600,230.484 236.436,230.636 236.914 C 231.086 238.331,233.069 240.788,234.877 242.169 C 236.567 243.459,239.222 249.824,239.205 252.543 C 239.183 255.877,240.814 259.399,243.430 261.668 C 245.923 263.829,247.200 265.756,247.200 267.355 C 247.200 268.852,247.981 270.394,249.717 272.329 C 251.303 274.095,252.855 277.148,253.847 280.452 C 254.152 281.471,254.672 282.528,255.001 282.801 C 255.331 283.074,255.600 283.475,255.600 283.691 C 255.600 283.908,256.119 284.741,256.754 285.542 C 258.293 287.486,259.017 290.443,259.999 298.800 C 260.219 300.670,260.770 303.460,261.224 305.000 C 261.678 306.540,262.211 308.700,262.409 309.800 C 263.255 314.518,263.576 315.585,265.178 319.000 C 266.998 322.880,268.457 327.206,269.205 330.942 C 269.463 332.230,270.298 334.480,271.061 335.942 C 272.033 337.807,272.518 339.354,272.684 341.126 C 272.845 342.846,273.040 343.484,273.293 343.126 C 273.538 342.780,273.599 343.148,273.470 344.200 C 273.362 345.080,273.362 345.574,273.471 345.298 C 273.579 345.021,273.836 344.899,274.041 345.025 C 274.245 345.152,274.281 345.468,274.119 345.728 C 273.675 346.440,273.590 353.405,273.984 356.737 C 274.284 359.271,274.195 360.230,273.336 363.737 C 272.204 368.358,272.209 372.903,273.356 380.200 C 274.267 386.000,274.232 396.261,273.296 397.600 C 271.493 400.179,266.591 404.392,263.850 405.720 C 262.198 406.521,260.076 407.995,258.800 409.229 C 257.590 410.400,254.893 412.509,252.807 413.916 C 248.124 417.074,244.000 422.076,244.000 424.599 C 244.000 424.866,243.338 425.952,242.528 427.013 C 241.719 428.073,240.022 430.954,238.759 433.415 C 237.245 436.363,235.752 438.624,234.382 440.044 C 226.624 448.086,224.882 461.427,230.255 471.652 C 231.695 474.393,234.289 477.200,235.382 477.200 C 236.231 477.200,239.994 482.816,240.004 484.099 C 240.011 485.070,241.921 488.695,242.925 489.642 C 243.621 490.299,244.070 491.319,244.355 492.891 C 244.920 496.011,248.141 500.397,249.869 500.399 C 250.127 500.400,250.923 500.895,251.637 501.500 C 253.197 502.822,255.399 504.216,256.895 504.827 C 257.703 505.158,258.101 505.709,258.417 506.937 C 258.652 507.852,259.111 509.432,259.437 510.449 C 259.877 511.821,260.018 514.093,259.982 519.250 C 259.932 526.561,259.841 526.959,258.000 527.924 C 256.679 528.617,254.638 531.357,253.774 533.600 C 252.849 536.000,251.590 537.291,249.560 537.920 C 246.772 538.785,244.594 541.215,243.810 544.336 C 243.444 545.793,242.949 547.220,242.711 547.508 C 242.472 547.795,242.208 548.879,242.123 549.915 C 242.039 550.952,241.918 552.430,241.853 553.200 C 241.789 553.970,241.706 554.975,241.668 555.433 C 241.631 555.892,240.998 556.882,240.263 557.633 C 239.527 558.385,238.429 559.990,237.822 561.200 C 237.023 562.792,236.130 563.813,234.594 564.892 C 233.325 565.784,231.853 567.334,230.935 568.745 C 230.091 570.044,228.878 571.423,228.240 571.811 C 227.602 572.199,225.802 573.726,224.240 575.206 C 222.678 576.685,220.476 578.362,219.346 578.931 C 217.280 579.973,216.123 580.977,212.791 584.622 C 211.625 585.897,209.793 587.225,207.635 588.358 C 205.793 589.325,203.536 590.857,202.618 591.762 C 199.551 594.785,189.278 596.226,185.859 594.113 C 185.640 593.978,184.998 593.827,184.431 593.779 C 179.658 593.371,177.688 592.914,176.681 591.980 C 175.593 590.971,175.094 590.699,168.334 587.418 C 166.049 586.309,164.168 585.109,163.734 584.485 C 162.511 582.725,159.914 580.404,157.800 579.181 C 155.290 577.729,151.538 572.955,150.611 570.034 C 150.180 568.675,146.639 565.299,144.479 564.187 C 142.869 563.357,141.962 562.505,140.713 560.647 C 139.808 559.301,138.557 557.609,137.934 556.886 C 137.310 556.163,136.800 555.306,136.800 554.981 C 136.800 554.655,136.627 554.077,136.415 553.695 C 135.714 552.431,134.400 549.455,134.400 549.131 C 134.400 548.808,136.773 544.770,137.180 544.400 C 137.301 544.290,137.675 543.663,138.012 543.006 C 138.708 541.648,141.063 540.186,143.172 539.802 C 145.479 539.383,147.112 538.015,148.426 535.400 C 149.090 534.080,150.376 531.920,151.284 530.600 C 154.839 525.435,156.000 523.623,156.000 523.242 C 156.000 523.024,156.315 522.610,156.700 522.323 C 157.085 522.035,157.928 521.080,158.572 520.200 C 159.217 519.320,160.341 517.925,161.070 517.101 C 161.799 516.276,163.397 513.536,164.620 511.011 C 165.843 508.486,167.021 506.310,167.238 506.176 C 167.801 505.828,167.401 497.671,166.631 493.800 C 166.064 490.952,166.058 490.270,166.573 487.600 C 166.892 485.950,167.253 483.340,167.376 481.800 C 168.446 468.422,168.440 468.706,167.788 463.648 C 167.092 458.246,166.018 454.756,164.572 453.200 C 163.506 452.052,161.854 448.487,160.773 445.000 C 160.015 442.555,159.458 441.851,157.467 440.818 C 156.778 440.460,155.961 439.422,155.346 438.123 C 154.337 435.990,151.827 433.551,150.096 433.020 C 149.598 432.868,148.930 432.238,148.610 431.620 C 147.492 429.457,145.987 428.076,143.951 427.344 C 141.500 426.462,140.581 425.401,140.227 423.043 C 139.832 420.404,137.409 418.417,134.570 418.402 C 134.333 418.401,133.717 417.950,133.200 417.400 C 132.683 416.850,132.100 416.400,131.904 416.400 C 131.708 416.400,129.983 415.616,128.071 414.657 C 126.158 413.698,123.510 412.518,122.185 412.035 C 120.194 411.309,119.483 410.780,118.097 408.987 C 116.772 407.276,115.743 406.479,113.218 405.209 C 111.459 404.324,109.747 403.186,109.415 402.679 C 109.082 402.172,107.987 401.140,106.981 400.385 C 102.577 397.086,101.269 390.397,103.892 384.600 C 105.054 382.033,105.602 379.950,106.182 375.893 C 106.472 373.869,107.984 371.681,110.332 369.891 C 113.861 367.200,114.629 367.011,122.200 366.968 C 129.155 366.930,131.905 366.386,134.000 364.636 C 134.330 364.360,135.590 363.726,136.800 363.227 C 138.010 362.727,139.570 361.777,140.266 361.114 C 141.102 360.318,142.188 359.790,143.466 359.558 C 146.251 359.053,148.241 358.067,148.756 356.937 C 149.002 356.397,149.383 356.066,149.602 356.201 C 149.821 356.336,150.000 356.274,150.000 356.063 C 150.000 355.851,150.558 355.484,151.239 355.246 C 151.920 355.009,153.097 354.271,153.853 353.607 C 155.032 352.572,155.568 352.393,157.614 352.350 C 158.926 352.322,160.180 352.255,160.400 352.200 C 160.620 352.145,161.250 352.078,161.800 352.050 C 162.350 352.023,163.115 351.676,163.500 351.280 C 164.718 350.026,166.204 347.888,166.100 347.537 C 166.045 347.352,166.180 347.200,166.400 347.200 C 166.620 347.200,166.801 346.975,166.802 346.700 C 166.803 346.425,167.524 345.589,168.403 344.843 C 169.385 344.009,170.181 342.890,170.464 341.943 C 170.719 341.094,171.072 340.400,171.249 340.400 C 171.427 340.400,172.163 339.885,172.886 339.256 C 173.609 338.627,174.901 337.862,175.758 337.556 C 176.616 337.250,177.503 336.703,177.730 336.340 C 177.957 335.977,178.347 335.758,178.597 335.854 C 178.846 335.950,179.382 335.662,179.787 335.214 C 180.192 334.766,180.732 334.400,180.987 334.400 C 182.139 334.400,187.692 328.258,188.899 325.648 C 189.573 324.192,190.457 322.550,190.863 322.000 C 191.269 321.450,191.851 319.803,192.157 318.341 C 192.568 316.373,193.141 315.115,194.356 313.504 C 195.260 312.307,196.000 311.206,196.000 311.057 C 196.000 310.909,196.641 309.823,197.424 308.643 C 198.502 307.019,198.986 305.706,199.418 303.229 C 199.817 300.948,200.336 299.452,201.138 298.280 C 203.022 295.526,203.463 294.387,204.186 290.403 C 204.565 288.315,205.031 286.316,205.221 285.961 C 206.440 283.682,206.798 276.688,207.010 250.935 C 207.187 229.435,207.261 227.743,208.000 228.200 C 208.190 228.317,208.455 228.235,208.589 228.017 C 208.835 227.619,211.587 226.702,212.913 226.576 C 213.305 226.538,213.745 226.388,213.892 226.242 C 214.038 226.095,214.438 226.093,214.779 226.236 C 215.121 226.380,216.287 226.832,217.372 227.240 M287.200 270.951 C 287.200 272.507,287.070 272.757,286.040 273.184 C 280.580 275.445,280.781 283.469,286.339 285.134 C 289.087 285.958,289.200 286.353,289.200 295.109 C 289.200 304.449,289.712 305.833,293.600 306.993 C 294.150 307.158,295.005 307.663,295.500 308.116 L 296.400 308.939 296.400 327.576 C 296.400 348.964,296.281 348.187,299.827 350.020 C 300.912 350.580,302.160 351.242,302.600 351.491 C 303.376 351.929,303.407 352.490,303.641 370.271 C 303.905 390.400,304.034 391.553,306.416 395.150 C 307.164 396.279,307.604 397.464,307.610 398.369 C 307.615 399.156,307.812 400.610,308.048 401.600 C 308.284 402.590,308.613 409.610,308.780 417.200 L 309.082 431.000 309.075 418.000 C 309.066 401.537,308.769 396.867,307.421 392.000 C 306.046 387.038,305.512 377.287,305.832 363.000 C 306.101 351.014,305.987 350.466,302.918 348.992 C 301.992 348.547,300.687 347.658,300.018 347.017 L 298.800 345.850 298.798 328.825 C 298.795 307.567,298.432 305.200,295.178 305.200 C 294.750 305.200,293.680 304.480,292.800 303.600 L 291.200 302.000 291.200 293.986 C 291.200 284.922,291.044 284.345,288.383 283.548 C 287.543 283.296,286.192 282.411,285.383 281.582 L 283.911 280.075 284.562 278.137 C 285.929 274.068,286.801 273.014,288.910 272.878 C 291.173 272.732,291.231 272.458,289.387 270.613 C 287.550 268.777,287.200 268.831,287.200 270.951 M315.087 405.870 C 313.975 419.752,313.919 421.511,314.398 427.400 C 314.667 430.700,315.019 436.280,315.181 439.800 C 315.415 444.864,315.487 445.407,315.528 442.400 C 315.556 440.310,315.405 434.820,315.192 430.200 C 314.928 424.466,314.944 418.967,315.242 412.872 C 315.482 407.962,315.587 403.854,315.476 403.743 C 315.365 403.632,315.190 404.589,315.087 405.870 M281.504 409.100 L 282.565 411.400 282.730 432.837 C 282.916 456.961,283.139 455.196,279.594 457.604 C 275.674 460.266,275.812 459.588,275.796 476.200 C 275.780 492.627,275.934 491.854,272.293 493.797 C 269.331 495.378,268.505 496.232,266.932 499.344 L 265.546 502.088 264.524 501.144 C 263.962 500.625,262.796 499.252,261.934 498.094 C 260.948 496.770,259.545 495.524,258.158 494.742 C 256.944 494.057,255.467 492.844,254.876 492.048 C 254.284 491.252,252.336 489.160,250.547 487.400 C 247.076 483.987,247.042 483.913,246.593 479.000 C 246.321 476.018,245.219 473.828,243.385 472.627 C 240.302 470.607,238.885 461.210,240.075 450.675 L 240.519 446.750 242.835 444.193 C 245.791 440.932,245.826 440.859,246.600 436.400 C 247.410 431.731,247.494 431.570,250.738 428.400 C 252.202 426.970,253.904 425.124,254.520 424.297 C 255.135 423.470,256.485 422.358,257.520 421.825 C 259.716 420.693,261.168 419.393,262.321 417.527 C 263.727 415.253,265.042 414.583,269.200 414.019 C 273.520 413.433,273.986 413.188,275.857 410.526 C 278.845 406.273,280.060 405.966,281.504 409.100 M313.431 410.100 C 313.287 410.595,313.100 414.600,313.016 419.000 L 312.862 427.000 313.191 419.865 C 313.372 415.941,313.639 411.936,313.784 410.965 C 314.066 409.089,313.867 408.602,313.431 410.100 M108.386 414.080 L 112.972 414.544 116.064 417.435 C 117.848 419.104,119.630 420.417,120.278 420.541 C 120.895 420.660,122.750 420.965,124.400 421.221 C 128.112 421.796,129.438 422.581,131.639 425.505 C 132.588 426.767,133.823 428.149,134.383 428.577 C 134.942 429.004,136.570 430.557,138.000 432.029 C 139.430 433.501,141.461 435.301,142.513 436.030 C 143.566 436.758,144.952 438.175,145.594 439.177 C 147.226 441.725,147.556 442.076,149.673 443.522 C 152.528 445.472,153.168 446.621,153.428 450.265 C 153.752 454.819,153.718 454.742,156.763 457.881 C 159.996 461.215,159.877 460.816,160.373 470.000 C 160.697 476.006,160.270 496.293,159.769 498.709 C 159.665 499.209,158.348 500.919,156.841 502.509 C 154.171 505.328,154.085 505.485,153.389 508.800 C 152.491 513.081,152.023 514.007,149.833 515.837 C 146.920 518.272,146.401 519.253,145.722 523.609 C 144.818 529.403,143.832 530.470,138.501 531.424 C 134.030 532.225,133.215 532.653,131.549 535.074 C 129.643 537.844,127.680 538.960,125.968 538.246 C 125.216 537.932,123.522 537.476,122.203 537.233 C 117.852 536.431,117.597 535.922,117.043 526.947 C 116.520 518.472,116.449 518.256,113.488 516.057 C 109.823 513.335,109.999 513.840,109.734 505.352 C 109.463 496.641,109.286 496.109,105.957 493.973 C 102.440 491.715,102.655 493.035,102.467 472.582 C 102.279 452.013,102.394 452.722,98.838 450.224 C 95.220 447.682,95.400 448.590,95.404 432.871 C 95.407 418.150,95.517 417.185,97.540 414.056 C 98.218 413.006,97.759 413.005,108.386 414.080 M308.909 432.800 C 308.909 433.790,308.987 434.195,309.082 433.700 C 309.178 433.205,309.178 432.395,309.082 431.900 C 308.987 431.405,308.909 431.810,308.909 432.800 M308.434 440.367 C 308.415 443.318,308.518 445.615,308.663 445.470 C 309.030 445.103,309.108 437.219,308.757 436.000 C 308.598 435.450,308.453 437.415,308.434 440.367 M314.655 450.700 C 314.325 455.073,313.247 457.413,310.977 458.679 C 310.109 459.162,308.860 460.025,308.200 460.597 C 307.540 461.168,306.775 461.815,306.500 462.034 C 306.225 462.252,306.000 462.845,306.000 463.349 C 306.000 463.854,305.113 466.052,304.028 468.234 L 302.056 472.200 302.028 469.949 C 302.008 468.363,302.186 467.544,302.629 467.176 C 303.894 466.126,305.876 461.600,305.070 461.600 C 304.790 461.600,304.317 462.275,304.020 463.100 C 303.723 463.925,303.071 465.249,302.572 466.041 C 301.726 467.385,301.665 467.913,301.673 473.841 L 301.681 480.200 302.834 477.789 C 303.469 476.464,304.279 474.124,304.634 472.589 C 304.990 471.055,305.604 468.990,305.999 468.000 C 306.395 467.010,306.924 465.189,307.176 463.954 C 307.659 461.587,308.642 460.318,310.400 459.793 C 312.159 459.269,313.491 458.056,314.168 456.363 C 314.779 454.837,315.572 447.200,315.119 447.200 C 315.009 447.200,314.799 448.775,314.655 450.700 M308.940 454.400 C 308.940 456.270,309.009 457.035,309.093 456.100 C 309.177 455.165,309.177 453.635,309.093 452.700 C 309.009 451.765,308.940 452.530,308.940 454.400 M301.641 463.925 C 301.674 465.754,301.739 465.965,301.971 465.000 C 302.131 464.340,302.472 463.407,302.731 462.926 C 303.341 461.791,303.338 461.781,302.400 461.710 C 301.682 461.656,301.604 461.884,301.641 463.925 M294.400 507.000 C 294.400 509.168,294.828 509.252,296.640 507.440 C 298.452 505.628,298.368 505.200,296.200 505.200 L 294.400 505.200 294.400 507.000 " stroke="none" fill="#3d9f5c" fill-rule="evenodd"></path><path id="path3" d="M292.800 273.206 C 292.800 273.430,292.305 273.608,291.700 273.601 C 291.095 273.595,290.240 273.590,289.800 273.590 C 289.360 273.590,288.665 273.582,288.255 273.573 C 287.247 273.551,287.306 273.387,286.984 277.100 L 286.697 280.400 289.248 280.443 C 290.652 280.466,292.340 280.503,293.000 280.523 L 294.200 280.561 294.200 291.381 L 294.200 302.200 296.200 302.301 C 301.779 302.581,301.290 300.368,301.353 325.588 L 301.403 345.800 304.496 345.917 C 306.925 346.008,307.668 346.180,307.954 346.717 C 308.155 347.093,308.420 356.760,308.545 368.200 C 308.777 389.524,308.970 392.907,309.968 393.123 C 310.418 393.220,310.437 393.126,310.057 392.669 C 309.679 392.214,309.707 392.044,310.190 391.859 C 310.622 391.694,310.805 391.885,310.816 392.513 C 310.831 393.339,310.873 393.324,311.429 392.300 C 312.163 390.947,312.321 390.920,312.183 392.172 C 312.122 392.726,312.322 393.238,312.648 393.363 C 313.096 393.535,313.132 393.420,312.817 392.831 C 312.517 392.271,312.560 392.024,312.987 391.860 C 313.348 391.722,313.485 391.835,313.357 392.169 C 313.245 392.459,313.453 392.812,313.819 392.952 C 314.203 393.099,314.387 393.458,314.254 393.803 C 314.083 394.250,314.324 394.400,315.213 394.400 C 316.385 394.400,316.873 393.540,316.005 393.003 C 315.778 392.863,315.711 393.023,315.847 393.379 C 316.004 393.787,315.857 394.000,315.419 394.000 C 315.053 394.000,314.852 393.839,314.974 393.642 C 315.096 393.445,314.964 393.195,314.681 393.086 C 314.136 392.877,314.017 390.650,314.524 390.143 C 314.925 389.741,316.053 389.590,315.819 389.969 C 315.717 390.134,315.783 390.793,315.965 391.434 C 316.256 392.460,316.294 392.373,316.285 390.715 C 316.279 389.679,316.123 388.924,315.938 389.038 C 315.753 389.152,315.776 388.789,315.988 388.231 C 316.562 386.722,316.528 347.788,315.949 343.825 C 315.369 339.845,314.662 339.025,311.473 338.626 L 309.200 338.342 309.163 323.071 C 309.143 314.672,309.154 307.070,309.188 306.179 C 309.492 298.301,307.624 294.811,303.100 294.802 L 302.000 294.800 301.997 290.100 C 301.996 287.515,301.880 284.185,301.739 282.700 L 301.484 280.000 299.319 280.000 C 298.013 280.000,297.249 280.155,297.394 280.390 C 297.527 280.605,298.163 280.719,298.808 280.644 C 299.453 280.569,299.885 280.663,299.767 280.854 C 299.420 281.416,297.739 281.250,297.200 280.600 C 296.926 280.270,296.184 280.000,295.551 280.000 C 294.404 280.000,294.101 279.290,294.379 277.260 C 294.427 276.913,294.265 276.833,293.927 277.037 C 293.492 277.298,293.491 277.241,293.924 276.706 C 294.243 276.313,294.387 275.382,294.291 274.330 C 294.161 272.901,294.079 272.756,293.820 273.500 C 293.648 273.995,293.341 274.400,293.139 274.400 C 292.936 274.400,292.963 274.042,293.200 273.600 C 293.490 273.058,293.495 272.800,293.214 272.800 C 292.986 272.800,292.800 272.983,292.800 273.206 M300.572 281.645 C 300.421 281.889,300.546 282.247,300.849 282.439 C 301.285 282.715,301.254 282.789,300.700 282.794 C 300.011 282.800,299.746 281.988,300.267 281.467 C 300.687 281.046,300.875 281.155,300.572 281.645 M314.692 390.241 C 314.560 390.374,314.608 390.895,314.800 391.400 C 314.992 391.905,315.025 392.455,314.874 392.623 C 314.724 392.791,314.801 392.814,315.046 392.674 C 315.291 392.534,315.441 391.949,315.377 391.374 C 315.250 390.209,315.052 389.882,314.692 390.241 M315.768 397.402 C 315.726 400.267,316.236 400.265,316.352 397.400 C 316.401 396.190,316.297 395.201,316.121 395.202 C 315.944 395.204,315.785 396.194,315.768 397.402 M315.593 402.500 C 315.006 410.481,314.973 427.612,315.522 438.600 C 315.696 442.086,315.801 436.311,315.801 423.300 C 315.800 406.424,315.741 400.485,315.593 402.500 M278.189 420.927 C 277.755 421.216,276.410 421.672,275.200 421.940 C 273.990 422.207,271.611 422.960,269.913 423.613 C 268.215 424.266,266.556 424.800,266.226 424.800 C 265.897 424.800,264.518 425.516,263.164 426.392 C 261.809 427.268,260.093 428.204,259.350 428.472 C 258.608 428.741,258.000 429.109,258.000 429.289 C 258.000 429.470,257.314 430.379,256.476 431.309 C 253.463 434.651,250.773 439.111,250.405 441.370 C 250.215 442.539,249.834 444.284,249.560 445.248 C 248.835 447.796,248.991 459.589,249.819 464.797 C 250.696 470.313,251.854 474.032,254.613 480.200 C 254.908 480.860,255.433 482.030,255.778 482.800 C 256.638 484.715,258.035 486.549,259.648 487.878 C 260.392 488.491,261.222 489.290,261.493 489.654 C 262.938 491.594,265.218 492.324,269.128 492.100 C 274.572 491.787,274.227 492.904,274.081 476.085 C 273.928 458.469,274.114 457.689,278.941 455.623 L 280.882 454.793 280.668 438.897 C 280.411 419.787,280.368 419.473,278.189 420.927 M104.200 421.500 C 103.540 421.555,101.892 421.703,100.537 421.828 L 98.075 422.056 97.648 425.328 C 96.940 430.763,96.919 432.319,97.458 439.400 C 97.743 443.140,97.981 446.401,97.988 446.646 C 97.995 446.891,98.788 447.392,99.751 447.760 C 103.834 449.319,103.928 449.836,104.131 471.831 C 104.313 491.518,104.274 491.202,106.700 492.216 C 110.557 493.828,111.255 495.571,111.658 504.600 C 112.039 513.130,112.097 513.437,113.389 513.762 C 116.336 514.501,118.161 517.605,118.585 522.600 C 118.838 525.567,119.322 529.068,119.843 531.690 C 120.042 532.692,120.129 532.737,120.930 532.251 C 121.408 531.961,122.970 531.391,124.400 530.986 C 125.830 530.581,127.588 529.745,128.307 529.130 C 129.026 528.515,130.106 527.893,130.707 527.749 C 133.940 526.972,141.306 519.948,142.261 516.732 C 142.514 515.878,143.010 514.739,143.362 514.202 C 143.714 513.665,144.389 512.185,144.863 510.913 C 145.858 508.238,146.526 507.069,148.013 505.400 C 148.601 504.740,149.391 503.390,149.768 502.400 C 150.145 501.410,150.960 499.963,151.578 499.184 C 154.606 495.371,156.786 479.589,155.278 472.400 C 154.552 468.937,152.657 463.396,151.515 461.400 C 151.263 460.960,150.366 459.430,149.521 458.000 C 148.675 456.570,147.092 453.600,146.002 451.400 C 144.912 449.200,143.841 447.189,143.623 446.930 C 143.404 446.672,142.904 445.944,142.513 445.311 C 140.863 442.651,138.402 440.206,135.386 438.233 C 132.773 436.523,131.763 435.545,129.986 433.005 C 127.715 429.758,127.231 429.202,124.495 426.690 C 123.100 425.410,122.314 425.066,119.325 424.427 C 117.386 424.012,115.079 423.390,114.200 423.045 C 112.388 422.333,106.014 421.349,104.200 421.500 M314.514 431.400 C 314.517 432.500,314.595 432.903,314.687 432.295 C 314.779 431.686,314.777 430.786,314.682 430.295 C 314.587 429.803,314.511 430.300,314.514 431.400 M314.965 445.600 C 314.972 456.834,314.327 458.800,310.305 459.810 C 308.300 460.313,308.673 461.120,310.735 460.739 C 313.103 460.302,314.477 459.291,315.058 457.557 C 315.716 455.598,316.241 445.404,315.667 445.759 C 315.356 445.951,315.185 444.629,315.092 441.316 C 315.019 438.722,314.962 440.650,314.965 445.600 M314.509 450.000 C 314.509 450.990,314.587 451.395,314.682 450.900 C 314.778 450.405,314.778 449.595,314.682 449.100 C 314.587 448.605,314.509 449.010,314.509 450.000 M311.240 453.102 C 310.958 453.784,310.383 454.653,309.963 455.033 C 309.544 455.413,309.200 455.904,309.200 456.124 C 309.200 456.740,310.810 455.140,311.465 453.874 C 311.786 453.253,311.982 452.547,311.901 452.304 C 311.820 452.061,311.523 452.420,311.240 453.102 M314.060 452.916 C 313.935 455.235,311.256 458.800,309.638 458.800 C 309.397 458.800,309.200 458.993,309.200 459.230 C 309.200 459.466,309.955 459.241,310.878 458.730 C 312.865 457.629,314.561 454.754,314.291 452.945 L 314.120 451.800 314.060 452.916 M307.252 463.800 C 306.958 465.120,306.395 467.010,305.999 468.000 C 305.604 468.990,304.993 471.044,304.641 472.564 C 304.288 474.084,303.560 476.289,303.022 477.464 C 301.859 480.005,302.192 480.170,304.137 478.017 C 306.110 475.834,308.285 467.179,307.921 462.965 C 307.787 461.419,307.779 461.430,307.252 463.800 M303.504 468.500 C 302.927 469.381,302.106 471.594,302.501 471.200 C 302.838 470.864,304.427 467.600,304.254 467.600 C 304.165 467.600,303.827 468.005,303.504 468.500 " stroke="none" fill="#fca4c4" fill-rule="evenodd"></path><path id="path4" d="M213.892 226.242 C 213.745 226.388,213.305 226.538,212.913 226.576 C 211.587 226.702,208.835 227.619,208.589 228.017 C 208.455 228.235,208.190 228.317,208.000 228.200 C 207.261 227.743,207.187 229.435,207.010 250.935 C 206.798 276.688,206.440 283.682,205.221 285.961 C 205.031 286.316,204.565 288.315,204.186 290.403 C 203.463 294.387,203.022 295.526,201.138 298.280 C 200.336 299.452,199.817 300.948,199.418 303.229 C 198.986 305.706,198.502 307.019,197.424 308.643 C 196.641 309.823,196.000 310.909,196.000 311.057 C 196.000 311.206,195.260 312.307,194.356 313.504 C 193.141 315.115,192.568 316.373,192.157 318.341 C 191.851 319.803,191.269 321.450,190.863 322.000 C 190.457 322.550,189.573 324.192,188.899 325.648 C 187.692 328.258,182.139 334.400,180.987 334.400 C 180.732 334.400,180.192 334.766,179.787 335.214 C 179.382 335.662,178.846 335.950,178.597 335.854 C 178.347 335.758,177.957 335.977,177.730 336.340 C 177.503 336.703,176.616 337.250,175.758 337.556 C 174.901 337.862,173.609 338.627,172.886 339.256 C 172.163 339.885,171.427 340.400,171.249 340.400 C 171.072 340.400,170.719 341.094,170.464 341.943 C 170.181 342.890,169.385 344.009,168.403 344.843 C 167.524 345.589,166.803 346.425,166.802 346.700 C 166.801 346.975,166.620 347.200,166.400 347.200 C 166.180 347.200,166.045 347.352,166.100 347.537 C 166.204 347.888,164.718 350.026,163.500 351.280 C 163.115 351.676,162.350 352.023,161.800 352.050 C 161.250 352.078,160.620 352.145,160.400 352.200 C 160.180 352.255,158.926 352.322,157.614 352.350 C 155.568 352.393,155.032 352.572,153.853 353.607 C 153.097 354.271,151.920 355.009,151.239 355.246 C 150.558 355.484,150.000 355.851,150.000 356.063 C 150.000 356.274,149.821 356.336,149.602 356.201 C 149.383 356.066,149.002 356.397,148.756 356.937 C 148.241 358.067,146.251 359.053,143.466 359.558 C 142.188 359.790,141.102 360.318,140.266 361.114 C 139.570 361.777,138.010 362.727,136.800 363.227 C 135.590 363.726,134.330 364.360,134.000 364.636 C 131.905 366.386,129.155 366.930,122.200 366.968 C 114.629 367.011,113.861 367.200,110.332 369.891 C 107.984 371.681,106.472 373.869,106.182 375.893 C 105.602 379.950,105.054 382.033,103.892 384.600 C 101.269 390.397,102.577 397.086,106.981 400.385 C 107.987 401.140,109.082 402.172,109.415 402.679 C 109.747 403.186,111.459 404.324,113.218 405.209 C 115.743 406.479,116.772 407.276,118.097 408.987 C 119.483 410.780,120.194 411.309,122.185 412.035 C 123.510 412.518,126.158 413.698,128.071 414.657 C 129.983 415.616,131.708 416.400,131.904 416.400 C 132.100 416.400,132.683 416.850,133.200 417.400 C 133.717 417.950,134.333 418.401,134.570 418.402 C 137.409 418.417,139.832 420.404,140.227 423.043 C 140.581 425.401,141.500 426.462,143.951 427.344 C 145.987 428.076,147.492 429.457,148.610 431.620 C 148.930 432.238,149.598 432.868,150.096 433.020 C 151.827 433.551,154.337 435.990,155.346 438.123 C 155.961 439.422,156.778 440.460,157.467 440.818 C 159.458 441.851,160.015 442.555,160.773 445.000 C 161.854 448.487,163.506 452.052,164.572 453.200 C 166.018 454.756,167.092 458.246,167.788 463.648 C 168.440 468.706,168.446 468.422,167.376 481.800 C 167.253 483.340,166.892 485.950,166.573 487.600 C 166.058 490.270,166.064 490.952,166.631 493.800 C 167.401 497.671,167.801 505.828,167.238 506.176 C 167.021 506.310,165.843 508.486,164.620 511.011 C 163.397 513.536,161.799 516.276,161.070 517.101 C 160.341 517.925,159.217 519.320,158.572 520.200 C 157.928 521.080,157.085 522.035,156.700 522.323 C 156.315 522.610,156.000 523.024,156.000 523.242 C 156.000 523.623,154.839 525.435,151.284 530.600 C 150.376 531.920,149.090 534.080,148.426 535.400 C 147.112 538.015,145.479 539.383,143.172 539.802 C 141.063 540.186,138.708 541.648,138.012 543.006 C 137.675 543.663,137.301 544.290,137.180 544.400 C 136.773 544.770,134.400 548.808,134.400 549.131 C 134.400 549.455,135.714 552.431,136.415 553.695 C 136.627 554.077,136.800 554.655,136.800 554.981 C 136.800 555.306,137.310 556.163,137.934 556.886 C 138.557 557.609,139.808 559.301,140.713 560.647 C 141.962 562.505,142.869 563.357,144.479 564.187 C 146.639 565.299,150.180 568.675,150.611 570.034 C 151.538 572.955,155.290 577.729,157.800 579.181 C 159.914 580.404,162.511 582.725,163.734 584.485 C 164.168 585.109,166.049 586.309,168.334 587.418 C 175.094 590.699,175.593 590.971,176.681 591.980 C 177.688 592.914,179.658 593.371,184.431 593.779 C 184.998 593.827,185.640 593.978,185.859 594.113 C 189.278 596.226,199.551 594.785,202.618 591.762 C 203.536 590.857,205.793 589.325,207.635 588.358 C 209.793 587.225,211.625 585.897,212.791 584.622 C 216.123 580.977,217.280 579.973,219.346 578.931 C 220.476 578.362,222.678 576.685,224.240 575.206 C 225.802 573.726,227.602 572.199,228.240 571.811 C 228.878 571.423,230.091 570.044,230.935 568.745 C 231.853 567.334,233.325 565.784,234.594 564.892 C 236.130 563.813,237.023 562.792,237.822 561.200 C 238.429 559.990,239.527 558.385,240.263 557.633 C 240.998 556.882,241.631 555.892,241.668 555.433 C 241.706 554.975,241.789 553.970,241.853 553.200 C 241.918 552.430,242.039 550.952,242.123 549.915 C 242.208 548.879,242.472 547.795,242.711 547.508 C 242.949 547.220,243.444 545.793,243.810 544.336 C 244.594 541.215,246.772 538.785,249.560 537.920 C 251.590 537.291,252.849 536.000,253.774 533.600 C 254.638 531.357,256.679 528.617,258.000 527.924 C 259.841 526.959,259.932 526.561,259.982 519.250 C 260.018 514.093,259.877 511.821,259.437 510.449 C 259.111 509.432,258.652 507.852,258.417 506.937 C 258.101 505.709,257.703 505.158,256.895 504.827 C 255.399 504.216,253.197 502.822,251.637 501.500 C 250.923 500.895,250.127 500.400,249.869 500.399 C 248.141 500.397,244.920 496.011,244.355 492.891 C 244.070 491.319,243.621 490.299,242.925 489.642 C 241.921 488.695,240.011 485.070,240.004 484.099 C 239.994 482.816,236.231 477.200,235.382 477.200 C 234.289 477.200,231.695 474.393,230.255 471.652 C 224.882 461.427,226.624 448.086,234.382 440.044 C 235.752 438.624,237.245 436.363,238.759 433.415 C 240.022 430.954,241.719 428.073,242.528 427.013 C 243.338 425.952,244.000 424.866,244.000 424.599 C 244.000 422.076,248.124 417.074,252.807 413.916 C 254.893 412.509,257.590 410.400,258.800 409.229 C 260.076 407.995,262.198 406.521,263.850 405.720 C 266.591 404.392,271.493 400.179,273.296 397.600 C 274.232 396.261,274.267 386.000,273.356 380.200 C 272.209 372.903,272.204 368.358,273.336 363.737 C 274.195 360.230,274.284 359.271,273.984 356.737 C 273.590 353.405,273.675 346.440,274.119 345.728 C 274.281 345.468,274.245 345.152,274.041 345.025 C 273.836 344.899,273.579 345.021,273.471 345.298 C 273.362 345.574,273.362 345.080,273.470 344.200 C 273.599 343.148,273.538 342.780,273.293 343.126 C 273.040 343.484,272.845 342.846,272.684 341.126 C 272.518 339.354,272.033 337.807,271.061 335.942 C 270.298 334.480,269.463 332.230,269.205 330.942 C 268.457 327.206,266.998 322.880,265.178 319.000 C 263.576 315.585,263.255 314.518,262.409 309.800 C 262.211 308.700,261.678 306.540,261.224 305.000 C 260.770 303.460,260.219 300.670,259.999 298.800 C 259.017 290.443,258.293 287.486,256.754 285.542 C 256.119 284.741,255.600 283.908,255.600 283.691 C 255.600 283.475,255.331 283.074,255.001 282.801 C 254.672 282.528,254.152 281.471,253.847 280.452 C 252.855 277.148,251.303 274.095,249.717 272.329 C 247.981 270.394,247.200 268.852,247.200 267.355 C 247.200 265.756,245.923 263.829,243.430 261.668 C 240.814 259.399,239.183 255.877,239.205 252.543 C 239.222 249.824,236.567 243.459,234.877 242.169 C 233.069 240.788,231.086 238.331,230.636 236.914 C 230.484 236.436,229.408 235.600,228.098 234.942 C 226.847 234.314,225.580 233.575,225.283 233.300 C 224.986 233.025,224.598 232.800,224.421 232.800 C 224.244 232.800,223.492 231.905,222.750 230.810 C 222.007 229.716,221.121 228.816,220.780 228.810 C 220.439 228.805,219.976 228.616,219.752 228.392 C 219.527 228.167,218.456 227.649,217.372 227.240 C 216.287 226.832,215.121 226.380,214.779 226.236 C 214.438 226.093,214.038 226.095,213.892 226.242 " stroke="none" fill="#24b14d" fill-rule="evenodd"></path></g></svg>