<svg id="svg" version="1.1" xmlns="http://www.w3.org/2000/svg" xmlns:xlink="http://www.w3.org/1999/xlink" width="400" height="329.4117647058824" viewBox="0, 0, 400,329.4117647058824"><g id="svgg"><path id="path0" d="M212.591 99.218 C 211.526 99.526,211.408 100.165,212.416 100.165 C 212.809 100.165,212.844 100.269,212.564 100.607 C 212.362 100.850,212.277 101.130,212.376 101.228 C 213.841 102.694,204.881 102.285,202.946 100.798 L 202.142 100.179 203.295 100.162 C 204.381 100.145,204.411 100.116,203.809 99.660 C 202.971 99.027,199.994 99.027,199.157 99.660 C 198.554 100.116,198.581 100.144,199.633 100.154 L 200.748 100.165 199.910 100.824 C 199.221 101.366,198.555 101.486,196.159 101.501 C 192.579 101.524,182.911 102.300,182.133 102.626 C 181.421 102.925,175.573 101.822,175.813 101.434 C 176.106 100.959,174.964 100.712,174.195 101.084 C 173.800 101.275,173.031 101.524,172.488 101.637 C 171.944 101.751,171.221 101.926,170.881 102.028 C 170.452 102.156,170.339 102.090,170.511 101.812 C 170.779 101.378,170.085 101.526,168.154 102.316 C 167.138 102.731,167.010 102.941,166.567 104.918 C 166.388 105.716,166.429 105.816,166.808 105.501 C 167.198 105.178,167.202 105.425,166.836 107.174 C 166.599 108.302,166.403 109.564,166.399 109.977 C 166.395 110.391,166.170 110.814,165.898 110.919 C 165.626 111.023,165.404 111.315,165.404 111.567 C 165.404 111.820,165.283 112.026,165.135 112.026 C 164.790 112.026,163.910 113.869,163.616 115.208 C 163.454 115.948,163.098 116.366,162.375 116.665 C 161.818 116.896,160.937 117.443,160.418 117.880 C 159.862 118.347,159.473 118.504,159.473 118.261 C 159.473 118.033,159.375 117.945,159.256 118.064 C 159.137 118.183,158.842 118.117,158.601 117.917 C 157.894 117.331,157.659 118.425,157.673 122.241 C 157.685 125.788,158.344 128.371,158.794 126.631 C 158.975 125.931,158.995 125.929,159.719 126.519 C 160.960 127.530,161.515 130.459,161.061 133.608 C 160.853 135.058,160.695 137.652,160.710 139.374 C 160.900 160.903,160.972 163.541,161.367 163.673 C 161.594 163.749,161.779 164.113,161.779 164.483 C 161.779 165.028,161.868 165.081,162.250 164.764 C 162.823 164.289,163.427 165.198,163.427 166.535 C 163.427 167.000,163.575 167.381,163.756 167.381 C 164.200 167.381,164.181 172.177,163.729 174.284 C 163.533 175.199,163.246 175.947,163.092 175.947 C 162.938 175.947,162.720 176.236,162.608 176.589 C 162.496 176.943,162.210 177.157,161.973 177.066 C 161.285 176.802,160.650 183.446,160.907 188.223 C 161.119 192.181,160.909 193.746,159.899 195.717 C 159.491 196.513,159.477 196.517,159.475 195.809 C 159.473 195.295,159.326 195.135,158.979 195.268 C 158.628 195.402,158.478 195.231,158.461 194.681 C 158.439 193.953,158.420 193.946,158.155 194.563 C 157.662 195.710,157.771 200.131,158.309 200.843 C 158.773 201.457,158.793 201.446,158.803 200.592 L 158.814 199.700 159.596 200.483 C 160.153 201.040,160.448 201.819,160.618 203.186 C 160.749 204.243,160.953 205.255,161.071 205.437 C 161.769 206.512,161.969 209.939,161.389 210.894 C 160.405 212.513,160.373 214.035,161.312 214.650 C 161.750 214.937,162.109 215.382,162.109 215.640 C 162.109 215.897,162.420 216.326,162.800 216.592 C 163.673 217.203,165.074 219.245,165.074 219.905 C 165.074 220.180,165.351 220.553,165.690 220.735 C 166.028 220.916,166.388 221.481,166.490 221.990 C 166.741 223.245,167.944 224.712,168.722 224.712 C 169.134 224.712,169.357 224.939,169.357 225.359 C 169.357 225.715,169.802 226.513,170.346 227.133 C 171.516 228.465,171.556 228.666,170.656 228.666 C 169.684 228.666,170.151 229.203,171.328 229.438 C 172.570 229.687,172.620 230.224,171.417 230.407 L 170.511 230.544 171.417 230.593 C 172.150 230.633,172.323 230.799,172.323 231.466 C 172.323 232.664,173.420 233.608,174.814 233.608 C 175.477 233.608,175.901 233.471,175.791 233.292 C 175.684 233.119,176.009 233.192,176.513 233.455 C 177.637 234.042,177.971 234.052,178.689 233.526 C 179.465 232.955,179.739 231.496,179.018 231.773 C 178.576 231.942,178.559 231.893,178.910 231.470 C 179.361 230.926,180.404 231.413,180.043 231.998 C 179.944 232.158,180.019 232.290,180.211 232.290 C 180.658 232.290,180.651 232.211,180.116 231.179 C 179.871 230.708,179.543 230.432,179.385 230.565 C 179.228 230.698,179.278 230.571,179.497 230.283 C 179.716 229.994,179.786 229.637,179.651 229.489 C 179.517 229.340,179.588 229.323,179.809 229.450 C 180.065 229.597,180.286 229.384,180.417 228.863 C 180.635 227.993,180.770 227.943,184.514 227.351 C 187.279 226.914,190.811 227.495,191.981 228.579 C 192.423 228.989,192.971 229.325,193.198 229.325 C 193.425 229.325,194.113 229.843,194.728 230.478 C 195.595 231.372,195.716 231.631,195.268 231.631 C 194.950 231.631,194.781 231.779,194.893 231.960 C 195.006 232.143,194.763 232.290,194.348 232.290 C 193.634 232.290,193.626 232.317,194.175 232.867 C 194.922 233.612,201.876 233.667,203.460 232.939 L 204.448 232.485 203.305 232.361 L 202.161 232.237 202.933 231.656 C 203.690 231.084,203.695 231.045,203.206 229.376 C 202.745 227.804,202.750 227.677,203.265 227.677 C 203.571 227.677,203.963 227.542,204.135 227.377 C 204.721 226.815,210.562 226.703,212.096 227.224 C 212.872 227.487,213.841 227.674,214.249 227.639 C 216.158 227.474,216.925 227.714,217.939 228.789 C 218.516 229.400,219.289 229.996,219.658 230.113 C 220.027 230.230,220.496 230.694,220.701 231.143 C 220.906 231.593,221.262 231.978,221.492 231.999 C 221.723 232.021,221.466 232.138,220.923 232.260 C 219.432 232.595,220.803 233.246,223.536 233.501 C 227.033 233.828,229.984 232.770,229.984 231.189 C 229.984 230.567,229.918 230.582,229.059 231.405 C 228.172 232.255,227.090 232.643,227.512 231.960 C 227.624 231.779,227.591 231.631,227.439 231.631 C 227.127 231.631,227.123 230.098,227.434 229.787 C 227.545 229.677,227.502 229.235,227.338 228.806 C 227.127 228.249,227.167 227.953,227.480 227.769 C 228.024 227.450,229.034 225.520,228.787 225.272 C 228.531 225.016,230.288 224.151,231.470 223.950 C 232.012 223.857,233.076 223.677,233.835 223.549 C 234.759 223.393,235.503 222.993,236.085 222.341 C 236.580 221.785,237.155 221.443,237.422 221.546 C 237.702 221.653,237.891 221.522,237.891 221.222 C 237.891 220.945,238.023 220.800,238.183 220.899 C 239.452 221.684,240.286 119.082,239.044 114.992 C 238.705 113.876,238.603 111.367,238.896 111.367 C 239.027 111.367,238.830 110.544,238.460 109.539 C 238.024 108.357,237.695 107.857,237.529 108.125 C 237.331 108.447,237.132 108.413,236.650 107.977 C 236.307 107.667,235.854 107.414,235.641 107.414 C 235.429 107.414,235.255 107.117,235.255 106.755 C 235.255 106.329,235.022 106.081,234.596 106.054 C 233.679 105.997,233.531 105.956,232.784 105.546 C 232.422 105.348,231.606 105.076,230.972 104.943 C 230.338 104.810,229.448 104.516,228.995 104.290 C 228.542 104.063,227.027 103.317,225.627 102.632 C 223.044 101.366,222.515 100.582,223.736 99.827 C 225.139 98.960,215.341 98.425,212.591 99.218 M173.311 99.624 L 171.829 100.000 174.102 100.099 C 175.388 100.154,176.526 100.047,176.722 99.851 C 176.963 99.610,176.857 99.506,176.370 99.506 C 175.986 99.506,175.474 99.448,175.233 99.377 C 174.992 99.306,174.127 99.417,173.311 99.624 M237.503 106.712 C 238.351 107.595,239.090 108.278,239.146 108.230 C 239.423 107.994,238.191 105.773,237.611 105.463 C 236.076 104.641,236.029 105.178,237.503 106.712 M225.152 109.035 C 228.052 109.061,228.067 109.065,229.084 110.214 C 229.645 110.848,230.341 111.367,230.630 111.367 C 231.976 111.367,232.619 112.319,232.619 114.311 C 232.619 116.414,232.859 116.768,234.525 117.124 C 236.660 117.581,236.694 117.795,236.380 128.922 C 236.225 134.399,236.135 139.676,236.180 140.650 C 236.225 141.623,236.035 143.303,235.758 144.383 C 235.323 146.080,235.255 150.889,235.255 179.877 L 235.255 213.408 233.773 214.757 C 232.225 216.166,231.927 217.157,232.647 218.503 C 233.592 220.269,232.025 221.544,229.140 221.357 L 227.530 221.252 227.094 222.560 C 226.854 223.279,226.495 223.969,226.295 224.092 C 225.367 224.666,189.727 224.668,187.306 224.095 C 186.405 223.882,183.255 223.653,180.307 223.587 L 174.946 223.466 172.811 221.331 C 170.778 219.298,170.675 219.120,170.675 217.618 C 170.675 216.169,170.554 215.929,169.193 214.679 L 167.710 213.318 167.706 196.527 C 167.703 182.723,167.615 179.414,167.213 177.924 C 166.383 174.847,166.271 169.715,166.927 164.745 C 167.424 160.977,167.529 157.147,167.617 139.703 L 167.721 119.110 169.198 117.746 C 170.548 116.499,170.675 116.246,170.675 114.822 C 170.675 113.343,170.784 113.156,172.782 111.177 L 174.888 109.091 177.312 108.994 C 179.315 108.913,214.952 108.944,225.152 109.035 " stroke="none" fill="#0f0404" fill-rule="evenodd"></path><path id="path1" d="M229.848 113.297 C 229.740 113.472,229.557 115.444,229.442 117.681 C 229.223 121.941,228.949 122.879,227.544 124.193 C 226.846 124.844,226.686 125.299,226.674 126.664 C 226.649 129.658,226.201 131.112,224.922 132.354 C 223.971 133.277,223.695 133.839,223.519 135.203 C 223.332 136.655,223.091 137.097,221.864 138.234 C 220.575 139.430,220.428 139.718,220.428 141.065 C 220.428 142.861,219.538 143.965,213.139 150.111 C 210.783 152.373,210.145 152.810,208.908 153.008 C 207.856 153.176,207.025 153.625,205.912 154.627 C 201.810 158.321,201.290 158.582,197.261 158.979 C 195.440 159.158,194.812 159.379,193.936 160.149 C 192.125 161.738,191.423 161.865,184.679 161.820 C 173.948 161.748,172.231 161.559,170.525 160.256 L 169.075 159.149 168.862 160.876 C 168.574 163.213,168.797 178.793,169.123 179.118 C 169.266 179.261,170.720 179.458,172.353 179.557 L 175.323 179.736 176.454 181.098 C 177.467 182.318,177.783 182.484,179.485 182.693 C 181.316 182.919,181.479 183.022,184.079 185.615 C 185.561 187.093,186.934 188.451,187.131 188.633 C 189.209 190.550,191.040 193.153,191.237 194.471 C 191.403 195.578,191.761 196.221,192.711 197.121 L 193.965 198.309 194.174 203.356 C 194.423 209.356,194.194 210.641,192.633 212.010 C 191.840 212.705,191.337 213.547,191.003 214.738 C 190.480 216.608,189.512 217.998,187.040 220.433 C 185.846 221.609,185.557 222.071,185.886 222.277 C 186.511 222.667,206.387 222.858,216.600 222.572 L 225.206 222.332 225.700 221.299 C 226.338 219.966,227.420 219.451,229.594 219.445 C 231.560 219.439,231.677 218.968,230.186 217.072 C 229.803 216.585,229.223 215.806,228.897 215.342 C 228.385 214.612,228.063 214.498,226.513 214.498 C 224.783 214.498,224.691 214.452,223.835 213.158 C 223.347 212.421,222.567 211.619,222.100 211.376 C 220.737 210.664,212.252 202.231,211.875 201.214 C 211.687 200.704,211.532 199.877,211.532 199.377 C 211.532 198.823,211.198 198.155,210.677 197.669 C 209.499 196.568,208.896 195.303,208.896 193.932 C 208.896 193.026,208.573 192.409,207.414 191.104 L 205.931 189.434 205.913 186.727 C 205.822 173.125,205.830 173.035,207.427 170.346 C 208.019 169.349,208.603 167.955,208.724 167.248 C 208.874 166.374,209.352 165.560,210.217 164.703 C 211.192 163.738,211.543 163.085,211.720 161.904 C 211.938 160.451,212.280 160.032,217.842 154.400 C 221.083 151.119,224.023 148.101,224.376 147.694 C 224.960 147.019,225.307 146.952,228.257 146.952 L 231.497 146.952 232.800 145.619 L 234.102 144.285 234.102 131.545 L 234.102 118.806 233.050 118.504 C 231.787 118.142,231.573 117.727,231.327 115.160 C 231.144 113.256,230.429 112.356,229.848 113.297 M245.470 160.251 C 245.470 161.668,245.523 161.774,246.090 161.470 C 247.073 160.944,247.133 160.262,246.269 159.450 L 245.470 158.699 245.470 160.251 M245.316 165.806 C 245.186 166.944,245.097 168.542,245.117 169.357 C 245.137 170.173,245.262 177.438,245.394 185.502 L 245.634 200.165 246.354 199.445 C 247.683 198.116,247.824 196.734,248.162 181.718 C 248.537 165.082,248.489 164.637,246.251 163.952 C 245.603 163.753,245.532 163.893,245.316 165.806 " stroke="none" fill="#fbc71b" fill-rule="evenodd"></path><path id="path2" d="M169.249 98.735 C 169.128 98.857,169.028 99.516,169.028 100.201 C 169.028 101.429,169.010 101.446,167.628 101.546 C 166.234 101.647,166.227 101.654,166.126 103.048 C 166.026 104.434,166.012 104.448,164.761 104.448 C 163.390 104.448,163.097 104.801,163.097 106.452 C 163.097 107.354,163.016 107.414,161.779 107.414 L 160.461 107.414 160.461 110.379 L 160.461 113.344 158.979 113.344 L 157.496 113.344 157.541 116.722 C 157.565 118.579,157.647 119.728,157.722 119.275 C 157.973 117.755,158.124 117.521,158.601 117.917 C 158.842 118.117,159.137 118.183,159.256 118.064 C 159.375 117.945,159.473 118.033,159.473 118.261 C 159.473 118.504,159.862 118.347,160.418 117.880 C 160.937 117.443,161.818 116.896,162.375 116.665 C 163.098 116.366,163.454 115.948,163.616 115.208 C 163.910 113.869,164.790 112.026,165.135 112.026 C 165.283 112.026,165.404 111.820,165.404 111.567 C 165.404 111.315,165.626 111.023,165.898 110.919 C 166.170 110.814,166.395 110.391,166.399 109.977 C 166.403 109.564,166.599 108.302,166.836 107.174 C 167.202 105.425,167.198 105.178,166.808 105.501 C 166.429 105.816,166.388 105.716,166.567 104.918 C 167.010 102.941,167.138 102.731,168.154 102.316 C 170.085 101.526,170.779 101.378,170.511 101.812 C 170.339 102.090,170.452 102.156,170.881 102.028 C 171.221 101.926,171.944 101.751,172.488 101.637 C 173.031 101.524,173.800 101.275,174.195 101.084 C 174.964 100.712,176.106 100.959,175.813 101.434 C 175.573 101.822,181.421 102.925,182.133 102.626 C 182.911 102.300,192.579 101.524,196.159 101.501 C 198.555 101.486,199.221 101.366,199.910 100.824 L 200.748 100.165 199.633 100.154 C 198.581 100.144,198.554 100.116,199.157 99.660 C 199.994 99.027,202.971 99.027,203.809 99.660 C 204.411 100.116,204.381 100.145,203.295 100.162 L 202.142 100.179 202.946 100.798 C 204.989 102.368,213.296 102.674,212.350 101.144 C 212.257 100.993,212.356 100.760,212.572 100.627 C 212.830 100.468,212.693 100.285,212.165 100.089 C 210.490 99.466,212.502 99.016,217.463 98.903 C 222.225 98.795,224.794 99.173,223.736 99.827 C 222.515 100.582,223.044 101.366,225.627 102.632 C 227.027 103.317,228.542 104.063,228.995 104.290 C 229.448 104.516,230.338 104.810,230.972 104.943 C 231.606 105.076,232.422 105.348,232.784 105.546 C 233.531 105.956,233.679 105.997,234.596 106.054 C 235.022 106.081,235.255 106.329,235.255 106.755 C 235.255 107.117,235.429 107.414,235.641 107.414 C 235.854 107.414,236.307 107.667,236.650 107.977 C 237.132 108.413,237.331 108.447,237.529 108.125 C 237.695 107.857,238.024 108.357,238.460 109.539 C 238.830 110.544,239.027 111.367,238.896 111.367 C 238.603 111.367,238.705 113.876,239.044 114.992 C 240.286 119.082,239.452 221.684,238.183 220.899 C 238.023 220.800,237.891 220.945,237.891 221.222 C 237.891 221.522,237.702 221.653,237.422 221.546 C 237.155 221.443,236.580 221.785,236.085 222.341 C 235.503 222.993,234.759 223.393,233.835 223.549 C 233.076 223.677,232.012 223.857,231.470 223.950 C 230.288 224.151,228.531 225.016,228.787 225.272 C 229.034 225.520,228.024 227.450,227.480 227.769 C 227.167 227.953,227.127 228.249,227.338 228.806 C 227.502 229.235,227.545 229.677,227.434 229.787 C 227.123 230.098,227.127 231.631,227.439 231.631 C 227.591 231.631,227.624 231.779,227.512 231.960 C 227.090 232.643,228.172 232.255,229.059 231.405 C 229.918 230.582,229.984 230.567,229.984 231.189 C 229.984 232.770,227.033 233.828,223.536 233.501 C 220.803 233.246,219.432 232.595,220.923 232.260 C 221.466 232.138,221.723 232.021,221.492 231.999 C 221.262 231.978,220.906 231.593,220.701 231.143 C 220.496 230.694,220.027 230.230,219.658 230.113 C 219.289 229.996,218.516 229.400,217.939 228.789 C 216.925 227.714,216.158 227.474,214.249 227.639 C 213.841 227.674,212.872 227.487,212.096 227.224 C 210.562 226.703,204.721 226.815,204.135 227.377 C 203.963 227.542,203.571 227.677,203.265 227.677 C 202.750 227.677,202.745 227.804,203.206 229.376 C 203.695 231.045,203.690 231.084,202.933 231.656 L 202.161 232.237 203.305 232.361 L 204.448 232.485 203.460 232.939 C 201.876 233.667,194.922 233.612,194.175 232.867 C 193.626 232.317,193.634 232.290,194.348 232.290 C 194.763 232.290,195.006 232.143,194.893 231.960 C 194.781 231.779,194.950 231.631,195.268 231.631 C 195.716 231.631,195.595 231.372,194.728 230.478 C 194.113 229.843,193.425 229.325,193.198 229.325 C 192.971 229.325,192.423 228.989,191.981 228.579 C 190.811 227.495,187.279 226.914,184.514 227.351 C 180.770 227.943,180.635 227.993,180.417 228.863 C 180.286 229.384,180.065 229.597,179.809 229.450 C 179.588 229.323,179.517 229.340,179.651 229.489 C 179.786 229.637,179.716 229.994,179.497 230.283 C 179.278 230.571,179.228 230.698,179.385 230.565 C 179.543 230.432,179.871 230.708,180.116 231.179 C 180.651 232.211,180.658 232.290,180.211 232.290 C 180.019 232.290,179.944 232.158,180.043 231.998 C 180.404 231.413,179.361 230.926,178.910 231.470 C 178.559 231.893,178.576 231.942,179.018 231.773 C 179.741 231.496,179.465 232.956,178.686 233.528 C 178.232 233.861,183.260 233.925,204.465 233.857 L 230.807 233.773 230.909 232.372 L 231.010 230.972 233.756 230.972 C 236.741 230.972,236.903 230.869,236.903 228.968 C 236.903 228.066,236.984 228.007,238.221 228.007 L 239.539 228.007 239.539 226.524 L 239.539 225.041 241.021 225.041 L 242.504 225.041 242.504 220.593 L 242.504 216.145 243.987 216.145 L 245.470 216.145 245.470 195.440 C 245.470 175.813,245.435 174.601,244.811 172.158 C 244.448 170.741,244.152 169.344,244.152 169.053 C 244.152 168.762,244.448 167.971,244.811 167.295 C 245.453 166.096,245.470 165.435,245.470 141.187 L 245.470 116.310 243.987 116.310 L 242.504 116.310 242.504 111.862 L 242.504 107.414 241.021 107.414 L 239.539 107.414 239.539 105.931 L 239.539 104.448 238.221 104.448 C 236.984 104.448,236.903 104.389,236.903 103.487 C 236.903 101.836,236.610 101.483,235.239 101.483 C 233.988 101.483,233.974 101.469,233.874 100.082 L 233.773 98.682 201.622 98.598 C 183.939 98.552,169.371 98.614,169.249 98.735 M176.370 99.506 C 176.857 99.506,176.963 99.610,176.722 99.851 C 176.526 100.047,175.388 100.154,174.102 100.099 L 171.829 100.000 173.311 99.624 C 174.127 99.417,174.992 99.306,175.233 99.377 C 175.474 99.448,175.986 99.506,176.370 99.506 M237.611 105.463 C 238.191 105.773,239.423 107.994,239.146 108.230 C 239.090 108.278,238.351 107.595,237.503 106.712 C 236.029 105.178,236.076 104.641,237.611 105.463 M231.252 111.897 C 231.668 112.188,232.136 112.744,232.293 113.132 L 232.578 113.839 232.599 113.116 C 232.618 112.432,231.539 111.367,230.825 111.367 C 230.644 111.367,230.836 111.606,231.252 111.897 M233.860 117.504 L 235.266 118.781 235.281 132.290 C 235.293 142.160,235.392 145.577,235.648 144.975 C 235.841 144.522,236.036 142.891,236.080 141.351 C 236.791 116.751,236.847 117.621,234.525 117.124 C 233.930 116.997,233.221 116.743,232.949 116.559 C 232.677 116.376,233.087 116.801,233.860 117.504 M157.542 171.582 L 157.516 219.110 158.989 219.110 L 160.461 219.110 160.461 222.076 L 160.461 225.041 161.779 225.041 C 163.016 225.041,163.097 225.101,163.097 226.003 C 163.097 227.654,163.390 228.007,164.761 228.007 C 166.012 228.007,166.026 228.020,166.126 229.407 L 166.227 230.807 169.110 230.902 L 171.993 230.998 171.993 232.313 C 171.993 233.894,172.203 234.001,175.063 233.871 C 177.000 233.784,177.153 233.730,176.431 233.392 C 175.983 233.182,175.700 233.145,175.802 233.309 C 175.903 233.474,175.458 233.608,174.814 233.608 C 173.430 233.608,172.323 232.666,172.323 231.488 C 172.323 230.866,172.119 230.655,171.417 230.549 L 170.511 230.412 171.417 230.362 C 172.630 230.296,172.572 229.687,171.328 229.438 C 170.151 229.203,169.684 228.666,170.656 228.666 C 171.556 228.666,171.516 228.465,170.346 227.133 C 169.802 226.513,169.357 225.715,169.357 225.359 C 169.357 224.939,169.134 224.712,168.722 224.712 C 167.944 224.712,166.741 223.245,166.490 221.990 C 166.388 221.481,166.028 220.916,165.690 220.735 C 165.351 220.553,165.074 220.180,165.074 219.905 C 165.074 219.245,163.673 217.203,162.800 216.592 C 162.420 216.326,162.109 215.897,162.109 215.640 C 162.109 215.382,161.750 214.937,161.312 214.650 C 160.373 214.035,160.405 212.513,161.389 210.894 C 161.969 209.939,161.769 206.512,161.071 205.437 C 160.953 205.255,160.749 204.243,160.618 203.186 C 160.448 201.819,160.153 201.040,159.596 200.483 L 158.814 199.700 158.803 200.592 C 158.793 201.446,158.773 201.457,158.309 200.843 C 157.771 200.131,157.662 195.710,158.155 194.563 C 158.420 193.946,158.439 193.953,158.461 194.681 C 158.478 195.231,158.628 195.402,158.979 195.268 C 159.326 195.135,159.473 195.295,159.475 195.809 C 159.477 196.517,159.491 196.513,159.899 195.717 C 160.909 193.746,161.119 192.181,160.907 188.223 C 160.650 183.446,161.285 176.802,161.973 177.066 C 162.210 177.157,162.496 176.943,162.608 176.589 C 162.720 176.236,162.938 175.947,163.092 175.947 C 163.246 175.947,163.533 175.199,163.729 174.284 C 164.181 172.177,164.200 167.381,163.756 167.381 C 163.575 167.381,163.427 167.000,163.427 166.535 C 163.427 165.198,162.823 164.289,162.250 164.764 C 161.868 165.081,161.779 165.028,161.779 164.483 C 161.779 164.113,161.594 163.749,161.367 163.673 C 160.972 163.541,160.900 160.903,160.710 139.374 C 160.695 137.652,160.853 135.058,161.061 133.608 C 161.515 130.459,160.960 127.530,159.719 126.519 C 158.995 125.929,158.975 125.931,158.800 126.628 C 158.572 127.535,158.134 126.918,157.797 125.217 C 157.670 124.577,157.555 145.441,157.542 171.582 M167.381 159.760 C 167.381 159.918,167.143 162.179,166.853 164.785 C 166.282 169.916,166.405 174.891,167.175 177.759 C 167.570 179.233,167.615 178.357,167.601 169.440 C 167.592 163.958,167.538 159.473,167.482 159.473 C 167.426 159.473,167.381 159.602,167.381 159.760 M167.759 211.101 C 167.732 212.404,167.821 213.539,167.957 213.623 C 168.093 213.708,168.162 213.012,168.110 212.078 C 167.942 209.048,167.810 208.679,167.759 211.101 M232.300 218.845 C 232.286 220.046,231.174 220.758,229.311 220.758 C 227.932 220.758,227.676 220.891,226.463 222.241 L 225.131 223.723 205.729 223.752 C 192.676 223.771,186.650 223.885,187.315 224.100 C 188.964 224.634,225.430 224.627,226.295 224.092 C 226.495 223.969,226.854 223.279,227.094 222.560 L 227.530 221.252 229.140 221.357 C 231.986 221.541,233.633 220.232,232.659 218.558 C 232.350 218.027,232.309 218.060,232.300 218.845 " stroke="none" fill="#0c0c04" fill-rule="evenodd"></path><path id="path3" d="M177.312 108.994 L 174.888 109.091 172.782 111.177 C 170.784 113.156,170.675 113.343,170.675 114.822 C 170.675 116.250,170.550 116.497,169.186 117.749 L 167.696 119.117 167.687 162.417 C 167.681 186.233,167.782 207.502,167.909 209.683 L 168.141 213.648 169.408 214.786 C 170.555 215.815,170.675 216.079,170.675 217.558 C 170.675 219.137,170.750 219.266,172.880 221.375 L 175.085 223.558 200.081 223.671 L 225.078 223.783 226.437 222.270 C 227.677 220.890,227.928 220.758,229.311 220.758 C 231.624 220.758,232.290 220.120,232.290 217.903 C 232.290 216.153,232.355 216.014,233.792 214.695 L 235.294 213.316 235.120 197.020 C 235.024 188.058,234.825 179.390,234.679 177.759 C 234.507 175.849,234.549 173.680,234.798 171.664 C 235.059 169.551,235.198 160.437,235.225 143.606 L 235.265 118.679 233.983 117.664 C 232.817 116.740,232.688 116.480,232.546 114.773 C 232.417 113.211,232.240 112.782,231.489 112.214 C 230.994 111.839,230.002 110.976,229.285 110.297 L 227.981 109.061 224.781 109.048 C 195.820 108.934,179.276 108.915,177.312 108.994 M231.327 115.160 C 231.573 117.727,231.787 118.142,233.050 118.504 L 234.102 118.806 234.102 131.545 L 234.102 144.285 232.800 145.619 L 231.497 146.952 228.257 146.952 C 225.307 146.952,224.960 147.019,224.376 147.694 C 224.023 148.101,221.083 151.119,217.842 154.400 C 212.280 160.032,211.938 160.451,211.720 161.904 C 211.543 163.085,211.192 163.738,210.217 164.703 C 209.352 165.560,208.874 166.374,208.724 167.248 C 208.603 167.955,208.019 169.349,207.427 170.346 C 205.830 173.035,205.822 173.125,205.913 186.727 L 205.931 189.434 207.414 191.104 C 208.573 192.409,208.896 193.026,208.896 193.932 C 208.896 195.303,209.499 196.568,210.677 197.669 C 211.198 198.155,211.532 198.823,211.532 199.377 C 211.532 199.877,211.687 200.704,211.875 201.214 C 212.252 202.231,220.737 210.664,222.100 211.376 C 222.567 211.619,223.347 212.421,223.835 213.158 C 224.691 214.452,224.783 214.498,226.513 214.498 C 228.063 214.498,228.385 214.612,228.897 215.342 C 229.223 215.806,229.803 216.585,230.186 217.072 C 231.677 218.968,231.560 219.439,229.594 219.445 C 227.420 219.451,226.338 219.966,225.700 221.299 L 225.206 222.332 216.600 222.572 C 206.387 222.858,186.511 222.667,185.886 222.277 C 185.557 222.071,185.846 221.609,187.040 220.433 C 189.512 217.998,190.480 216.608,191.003 214.738 C 191.337 213.547,191.840 212.705,192.633 212.010 C 194.194 210.641,194.423 209.356,194.174 203.356 L 193.965 198.309 192.711 197.121 C 191.761 196.221,191.403 195.578,191.237 194.471 C 191.040 193.153,189.209 190.550,187.131 188.633 C 186.934 188.451,185.561 187.093,184.079 185.615 C 181.479 183.022,181.316 182.919,179.485 182.693 C 177.783 182.484,177.467 182.318,176.454 181.098 L 175.323 179.736 172.353 179.557 C 170.720 179.458,169.266 179.261,169.123 179.118 C 168.797 178.793,168.574 163.213,168.862 160.876 L 169.075 159.149 170.525 160.256 C 172.231 161.559,173.948 161.748,184.679 161.820 C 191.423 161.865,192.125 161.738,193.936 160.149 C 194.812 159.379,195.440 159.158,197.261 158.979 C 201.290 158.582,201.810 158.321,205.912 154.627 C 207.025 153.625,207.856 153.176,208.908 153.008 C 210.145 152.810,210.783 152.373,213.139 150.111 C 219.538 143.965,220.428 142.861,220.428 141.065 C 220.428 139.718,220.575 139.430,221.864 138.234 C 223.091 137.097,223.332 136.655,223.519 135.203 C 223.695 133.839,223.971 133.277,224.922 132.354 C 226.201 131.112,226.649 129.658,226.674 126.664 C 226.686 125.299,226.846 124.844,227.544 124.193 C 228.949 122.879,229.223 121.941,229.442 117.681 C 229.668 113.294,229.761 112.924,230.591 113.082 C 231.000 113.160,231.184 113.681,231.327 115.160 M187.425 116.540 C 187.233 116.772,186.944 116.880,186.783 116.781 C 186.260 116.458,186.475 116.020,187.133 116.070 C 187.616 116.106,187.688 116.223,187.425 116.540 M219.535 116.639 C 219.392 117.188,218.781 117.610,218.781 117.160 C 218.781 117.085,218.691 116.788,218.581 116.501 C 218.439 116.133,218.575 115.980,219.044 115.980 C 219.545 115.980,219.666 116.141,219.535 116.639 M223.109 121.494 C 223.326 121.711,223.254 122.003,222.897 122.361 C 222.287 122.971,221.556 123.061,221.249 122.565 C 221.135 122.380,220.904 122.315,220.735 122.419 C 220.304 122.686,220.351 121.791,220.791 121.351 C 221.212 120.929,222.632 121.017,223.109 121.494 M184.185 131.490 C 184.185 131.865,183.962 132.395,183.690 132.667 C 183.251 133.106,183.196 133.030,183.196 131.984 C 183.196 131.158,183.343 130.807,183.690 130.807 C 183.971 130.807,184.185 131.103,184.185 131.490 M202.888 144.263 C 203.202 144.777,203.650 145.134,203.882 145.056 C 204.114 144.978,204.276 145.039,204.241 145.192 C 204.207 145.344,204.290 145.766,204.427 146.129 C 204.563 146.491,204.821 147.182,205.001 147.664 C 205.223 148.261,205.213 148.752,204.970 149.207 C 204.774 149.574,204.613 150.224,204.613 150.652 C 204.613 151.828,201.366 152.816,200.139 152.012 C 198.465 150.915,198.546 149.229,200.467 145.168 C 201.441 143.109,202.044 142.883,202.888 144.263 M192.883 147.116 C 192.852 147.951,192.712 148.738,192.572 148.864 C 192.431 148.990,192.410 148.834,192.524 148.517 C 192.637 148.200,192.578 147.941,192.392 147.941 C 192.206 147.941,192.145 147.793,192.257 147.612 C 192.473 147.262,191.549 145.723,191.235 145.909 C 191.133 145.969,190.950 145.908,190.829 145.774 C 190.708 145.639,190.795 145.635,191.021 145.766 C 191.248 145.896,191.433 145.837,191.433 145.634 C 191.433 145.432,191.582 145.358,191.763 145.470 C 191.944 145.582,192.092 145.498,192.092 145.284 C 192.092 145.004,192.211 144.993,192.516 145.246 C 192.768 145.455,192.917 146.216,192.883 147.116 M184.787 150.772 C 185.743 151.442,185.570 151.961,184.349 152.091 C 182.967 152.239,182.358 151.650,183.074 150.859 C 183.747 150.115,183.842 150.110,184.787 150.772 M197.678 151.081 C 197.843 150.979,198.085 151.069,198.216 151.281 C 198.365 151.522,198.312 151.579,198.074 151.432 C 197.865 151.302,197.694 151.378,197.694 151.601 C 197.694 151.823,197.604 151.915,197.495 151.806 C 197.386 151.697,196.978 151.726,196.589 151.871 C 195.803 152.165,194.677 151.878,194.684 151.387 C 194.692 150.917,196.123 150.636,196.794 150.973 C 197.115 151.134,197.513 151.183,197.678 151.081 M231.538 153.749 C 231.954 154.318,231.920 156.369,231.475 157.514 C 230.786 159.286,227.342 159.901,225.715 158.543 L 224.641 157.647 225.340 156.500 C 225.724 155.870,226.119 155.132,226.217 154.860 C 226.818 153.198,230.563 152.416,231.538 153.749 M222.295 162.918 C 222.295 163.493,221.519 163.858,221.243 163.412 C 221.136 163.239,221.140 162.949,221.252 162.768 C 221.561 162.268,222.295 162.374,222.295 162.918 M244.689 167.501 C 244.025 168.900,244.035 169.277,244.811 172.158 C 245.516 174.779,245.658 174.245,245.084 171.129 C 244.794 169.554,244.791 168.732,245.073 167.813 C 245.561 166.223,245.369 166.067,244.689 167.501 M231.808 173.462 C 232.424 175.076,232.323 176.705,231.407 179.901 L 230.888 181.713 230.271 179.924 C 228.785 175.616,230.261 169.411,231.808 173.462 M211.397 175.204 C 211.042 175.559,210.854 175.062,211.103 174.429 C 211.336 173.836,211.354 173.835,211.469 174.408 C 211.536 174.739,211.503 175.098,211.397 175.204 M220.307 177.292 C 221.931 178.296,221.913 180.279,220.267 181.874 L 219.118 182.989 218.251 182.186 C 215.667 179.795,215.315 178.119,217.216 177.256 C 218.965 176.462,218.965 176.462,220.307 177.292 M230.890 192.834 C 230.814 193.060,230.503 193.267,230.197 193.294 C 229.767 193.332,229.755 193.308,230.146 193.187 C 230.423 193.101,230.566 192.894,230.462 192.726 C 230.359 192.559,230.444 192.422,230.651 192.422 C 230.858 192.422,230.965 192.607,230.890 192.834 M226.030 198.570 C 226.030 198.831,225.806 199.476,225.533 200.005 L 225.036 200.965 223.888 200.186 C 223.169 199.698,221.991 199.319,220.742 199.174 C 217.864 198.840,218.070 197.943,221.091 197.654 C 222.267 197.541,223.600 197.293,224.053 197.103 C 224.936 196.731,226.030 197.543,226.030 198.570 M178.358 204.695 C 178.279 204.831,178.075 204.942,177.905 204.942 C 177.542 204.942,177.486 203.843,177.832 203.497 C 178.100 203.229,178.577 204.315,178.358 204.695 M181.306 212.931 C 181.399 213.174,181.269 213.654,181.018 213.998 C 180.766 214.342,180.560 214.438,180.560 214.212 C 180.560 213.985,180.412 213.891,180.231 214.003 C 180.049 214.115,179.716 214.092,179.490 213.953 C 179.263 213.813,178.784 213.693,178.425 213.686 C 178.065 213.679,177.726 213.440,177.670 213.154 C 177.534 212.459,181.042 212.243,181.306 212.931 " stroke="none" fill="#f98026" fill-rule="evenodd"></path><path id="path4" d="M194.481 108.971 C 195.161 109.043,196.273 109.043,196.952 108.971 C 197.632 108.900,197.076 108.842,195.717 108.842 C 194.357 108.842,193.801 108.900,194.481 108.971 M186.491 116.311 C 186.491 116.830,187.067 116.971,187.425 116.540 C 187.688 116.223,187.616 116.106,187.133 116.070 C 186.780 116.043,186.491 116.151,186.491 116.311 M218.581 116.501 C 218.691 116.788,218.781 117.085,218.781 117.160 C 218.781 117.610,219.392 117.188,219.535 116.639 C 219.666 116.141,219.545 115.980,219.044 115.980 C 218.575 115.980,218.439 116.133,218.581 116.501 M220.791 121.351 C 220.351 121.791,220.304 122.686,220.735 122.419 C 220.904 122.315,221.135 122.380,221.249 122.565 C 221.556 123.061,222.287 122.971,222.897 122.361 C 223.254 122.003,223.326 121.711,223.109 121.494 C 222.632 121.017,221.212 120.929,220.791 121.351 M183.196 131.984 C 183.196 133.030,183.251 133.106,183.690 132.667 C 183.962 132.395,184.185 131.865,184.185 131.490 C 184.185 131.103,183.971 130.807,183.690 130.807 C 183.343 130.807,183.196 131.158,183.196 131.984 M200.467 145.168 C 198.546 149.229,198.465 150.915,200.139 152.012 C 201.366 152.816,204.613 151.828,204.613 150.652 C 204.613 150.224,204.774 149.574,204.970 149.207 C 205.213 148.752,205.223 148.261,205.001 147.664 C 204.821 147.182,204.563 146.491,204.427 146.129 C 204.290 145.766,204.207 145.344,204.241 145.192 C 204.276 145.039,204.114 144.978,203.882 145.056 C 203.650 145.134,203.202 144.777,202.888 144.263 C 202.044 142.883,201.441 143.109,200.467 145.168 M192.092 145.284 C 192.092 145.498,191.944 145.582,191.763 145.470 C 191.582 145.358,191.433 145.432,191.433 145.634 C 191.433 145.837,191.248 145.896,191.021 145.766 C 190.795 145.635,190.708 145.639,190.829 145.774 C 190.950 145.908,191.133 145.969,191.235 145.909 C 191.549 145.723,192.473 147.262,192.257 147.612 C 192.145 147.793,192.206 147.941,192.392 147.941 C 192.578 147.941,192.637 148.200,192.524 148.517 C 192.410 148.834,192.431 148.990,192.572 148.864 C 193.013 148.466,192.970 145.623,192.516 145.246 C 192.211 144.993,192.092 145.004,192.092 145.284 M183.074 150.859 C 182.358 151.650,182.967 152.239,184.349 152.091 C 185.570 151.961,185.743 151.442,184.787 150.772 C 183.842 150.110,183.747 150.115,183.074 150.859 M195.450 150.875 C 195.032 150.983,194.687 151.213,194.684 151.387 C 194.677 151.878,195.803 152.165,196.589 151.871 C 196.978 151.726,197.386 151.697,197.495 151.806 C 197.604 151.915,197.694 151.823,197.694 151.601 C 197.694 151.378,197.865 151.302,198.074 151.432 C 198.312 151.579,198.365 151.522,198.216 151.281 C 198.085 151.069,197.843 150.979,197.678 151.081 C 197.513 151.183,197.115 151.134,196.794 150.973 C 196.473 150.812,195.869 150.768,195.450 150.875 M235.025 154.201 C 235.025 155.198,235.086 155.605,235.162 155.107 C 235.237 154.609,235.237 153.793,235.162 153.295 C 235.086 152.797,235.025 153.204,235.025 154.201 M227.356 153.687 C 226.828 154.060,226.316 154.588,226.217 154.860 C 226.119 155.132,225.724 155.870,225.340 156.500 L 224.641 157.647 225.715 158.543 C 227.342 159.901,230.786 159.286,231.475 157.514 C 232.837 154.008,230.272 151.625,227.356 153.687 M221.252 162.768 C 221.140 162.949,221.136 163.239,221.243 163.412 C 221.519 163.858,222.295 163.493,222.295 162.918 C 222.295 162.374,221.561 162.268,221.252 162.768 M234.756 171.582 C 234.474 174.119,234.537 178.339,234.908 181.713 C 235.096 183.417,235.174 182.103,235.209 176.689 C 235.258 168.985,235.163 167.915,234.756 171.582 M230.100 173.229 C 229.395 174.812,229.465 177.589,230.271 179.924 L 230.888 181.713 231.407 179.901 C 232.323 176.705,232.424 175.076,231.808 173.462 C 231.124 171.672,230.814 171.629,230.100 173.229 M211.103 174.429 C 210.968 174.772,210.935 175.131,211.030 175.226 C 211.331 175.526,211.595 175.034,211.469 174.408 C 211.354 173.835,211.336 173.836,211.103 174.429 M217.216 177.256 C 215.315 178.119,215.667 179.795,218.251 182.186 L 219.118 182.989 220.267 181.874 C 223.094 179.135,220.782 175.637,217.216 177.256 M230.462 192.726 C 230.566 192.894,230.423 193.101,230.146 193.187 C 229.755 193.308,229.767 193.332,230.197 193.294 C 230.817 193.240,231.243 192.422,230.651 192.422 C 230.444 192.422,230.359 192.559,230.462 192.726 M224.053 197.103 C 223.600 197.293,222.267 197.541,221.091 197.654 C 218.070 197.943,217.864 198.840,220.742 199.174 C 221.991 199.319,223.169 199.698,223.888 200.186 L 225.036 200.965 225.533 200.005 C 226.476 198.181,225.595 196.454,224.053 197.103 M177.832 203.497 C 177.486 203.843,177.542 204.942,177.905 204.942 C 178.376 204.942,178.525 204.514,178.285 203.854 C 178.166 203.528,177.962 203.367,177.832 203.497 M177.670 213.154 C 177.726 213.440,178.065 213.679,178.425 213.686 C 178.784 213.693,179.263 213.813,179.490 213.953 C 179.716 214.092,180.049 214.115,180.231 214.003 C 180.412 213.891,180.560 213.985,180.560 214.212 C 180.560 214.438,180.766 214.342,181.018 213.998 C 181.811 212.913,181.313 212.483,179.353 212.562 C 177.927 212.620,177.589 212.739,177.670 213.154 " stroke="none" fill="#fc742c" fill-rule="evenodd"></path></g></svg>